<svg width="286" height="55" viewBox="0 0 286 55" fill="none" xmlns="http://www.w3.org/2000/svg">
<path d="M30.26 32.36C28.58 32.36 27.08 32 25.76 31.28C24.464 30.536 23.444 29.516 22.7 28.22C21.98 26.9 21.62 25.4 21.62 23.72C21.62 23.168 21.8 22.724 22.16 22.388C22.52 22.028 22.964 21.848 23.492 21.848C24.044 21.848 24.488 22.028 24.824 22.388C25.184 22.724 25.364 23.168 25.364 23.72C25.364 24.752 25.568 25.664 25.976 26.456C26.408 27.248 26.984 27.872 27.704 28.328C28.448 28.76 29.3 28.976 30.26 28.976C31.22 28.976 32.072 28.76 32.816 28.328C33.56 27.872 34.136 27.248 34.544 26.456C34.976 25.664 35.192 24.752 35.192 23.72V5.756C35.192 5.204 35.36 4.76 35.696 4.424C36.056 4.064 36.5 3.884 37.028 3.884C37.58 3.884 38.036 4.064 38.396 4.424C38.756 4.76 38.936 5.204 38.936 5.756V23.72C38.936 25.4 38.564 26.9 37.82 28.22C37.076 29.516 36.056 30.536 34.76 31.28C33.464 32 31.964 32.36 30.26 32.36ZM53.9832 32.144C52.2312 32.144 50.6592 31.712 49.2672 30.848C47.8752 29.96 46.7712 28.772 45.9552 27.284C45.1632 25.772 44.7672 24.068 44.7672 22.172C44.7672 20.276 45.1992 18.572 46.0632 17.06C46.9512 15.548 48.1392 14.36 49.6272 13.496C51.1392 12.608 52.8312 12.164 54.7032 12.164C56.5752 12.164 58.2552 12.608 59.7432 13.496C61.2312 14.36 62.4072 15.548 63.2712 17.06C64.1592 18.572 64.6032 20.276 64.6032 22.172H63.1992C63.1992 24.068 62.7912 25.772 61.9752 27.284C61.1832 28.772 60.0912 29.96 58.6992 30.848C57.3072 31.712 55.7352 32.144 53.9832 32.144ZM54.7032 28.904C55.9272 28.904 57.0192 28.616 57.9792 28.04C58.9392 27.44 59.6952 26.636 60.2472 25.628C60.7992 24.596 61.0752 23.444 61.0752 22.172C61.0752 20.876 60.7992 19.724 60.2472 18.716C59.6952 17.684 58.9392 16.88 57.9792 16.304C57.0192 15.704 55.9272 15.404 54.7032 15.404C53.5032 15.404 52.4112 15.704 51.4272 16.304C50.4672 16.88 49.6992 17.684 49.1232 18.716C48.5712 19.724 48.2952 20.876 48.2952 22.172C48.2952 23.444 48.5712 24.596 49.1232 25.628C49.6992 26.636 50.4672 27.44 51.4272 28.04C52.4112 28.616 53.5032 28.904 54.7032 28.904ZM62.7672 32.036C62.2392 32.036 61.7952 31.868 61.4352 31.532C61.0992 31.172 60.9312 30.728 60.9312 30.2V24.692L61.6152 20.876L64.6032 22.172V30.2C64.6032 30.728 64.4232 31.172 64.0632 31.532C63.7272 31.868 63.2952 32.036 62.7672 32.036ZM77.2321 32.144C75.5521 32.144 73.9921 31.892 72.5521 31.388C71.1361 30.86 70.0321 30.2 69.2401 29.408C68.8801 29.024 68.7241 28.592 68.7721 28.112C68.8441 27.608 69.0841 27.2 69.4921 26.888C69.9721 26.504 70.4401 26.348 70.8961 26.42C71.3761 26.468 71.7841 26.672 72.1201 27.032C72.5281 27.488 73.1761 27.92 74.0641 28.328C74.9761 28.712 75.9841 28.904 77.0881 28.904C78.4801 28.904 79.5361 28.676 80.2561 28.22C81.0001 27.764 81.3841 27.176 81.4081 26.456C81.4321 25.736 81.0841 25.112 80.3641 24.584C79.6681 24.056 78.3841 23.624 76.5121 23.288C74.0881 22.808 72.3241 22.088 71.2201 21.128C70.1401 20.168 69.6001 18.992 69.6001 17.6C69.6001 16.376 69.9601 15.368 70.6801 14.576C71.4001 13.76 72.3241 13.16 73.4521 12.776C74.5801 12.368 75.7561 12.164 76.9801 12.164C78.5641 12.164 79.9681 12.416 81.1921 12.92C82.4161 13.424 83.3881 14.12 84.1081 15.008C84.4441 15.392 84.6001 15.8 84.5761 16.232C84.5521 16.64 84.3481 16.988 83.9641 17.276C83.5801 17.54 83.1241 17.624 82.5961 17.528C82.0681 17.432 81.6241 17.216 81.2641 16.88C80.6641 16.304 80.0161 15.908 79.3201 15.692C78.6241 15.476 77.8201 15.368 76.9081 15.368C75.8521 15.368 74.9521 15.548 74.2081 15.908C73.4881 16.268 73.1281 16.796 73.1281 17.492C73.1281 17.924 73.2361 18.32 73.4521 18.68C73.6921 19.016 74.1481 19.328 74.8201 19.616C75.4921 19.88 76.4761 20.144 77.7721 20.408C79.5721 20.768 80.9881 21.224 82.0201 21.776C83.0761 22.328 83.8321 22.976 84.2881 23.72C84.7441 24.44 84.9721 25.28 84.9721 26.24C84.9721 27.344 84.6721 28.34 84.0721 29.228C83.4961 30.116 82.6321 30.824 81.4801 31.352C80.3521 31.88 78.9361 32.144 77.2321 32.144ZM98.543 32.144C96.599 32.144 94.883 31.724 93.395 30.884C91.907 30.02 90.731 28.844 89.867 27.356C89.027 25.844 88.607 24.116 88.607 22.172C88.607 20.204 89.027 18.476 89.867 16.988C90.731 15.476 91.907 14.3 93.395 13.46C94.883 12.596 96.599 12.164 98.543 12.164C100.463 12.164 102.167 12.596 103.655 13.46C105.143 14.3 106.307 15.476 107.147 16.988C108.011 18.476 108.443 20.204 108.443 22.172C108.443 24.116 108.023 25.844 107.183 27.356C106.343 28.844 105.179 30.02 103.691 30.884C102.203 31.724 100.487 32.144 98.543 32.144ZM98.543 28.904C99.791 28.904 100.895 28.616 101.855 28.04C102.815 27.464 103.559 26.672 104.087 25.664C104.639 24.656 104.915 23.492 104.915 22.172C104.915 20.852 104.639 19.688 104.087 18.68C103.559 17.648 102.815 16.844 101.855 16.268C100.895 15.692 99.791 15.404 98.543 15.404C97.295 15.404 96.191 15.692 95.231 16.268C94.271 16.844 93.515 17.648 92.963 18.68C92.411 19.688 92.135 20.852 92.135 22.172C92.135 23.492 92.411 24.656 92.963 25.664C93.515 26.672 94.271 27.464 95.231 28.04C96.191 28.616 97.295 28.904 98.543 28.904ZM115.672 19.688C115.672 18.248 116.02 16.964 116.716 15.836C117.436 14.684 118.396 13.772 119.596 13.1C120.796 12.428 122.116 12.092 123.556 12.092C124.996 12.092 126.064 12.332 126.76 12.812C127.48 13.268 127.756 13.82 127.588 14.468C127.516 14.804 127.372 15.068 127.156 15.26C126.964 15.428 126.736 15.536 126.472 15.584C126.208 15.632 125.92 15.62 125.608 15.548C124.072 15.236 122.692 15.212 121.468 15.476C120.244 15.74 119.272 16.232 118.552 16.952C117.856 17.672 117.508 18.584 117.508 19.688H115.672ZM115.708 32C115.132 32 114.688 31.856 114.376 31.568C114.064 31.256 113.908 30.8 113.908 30.2V14.108C113.908 13.532 114.064 13.088 114.376 12.776C114.688 12.464 115.132 12.308 115.708 12.308C116.308 12.308 116.752 12.464 117.04 12.776C117.352 13.064 117.508 13.508 117.508 14.108V30.2C117.508 30.776 117.352 31.22 117.04 31.532C116.752 31.844 116.308 32 115.708 32ZM133.612 32C133.084 32 132.64 31.832 132.28 31.496C131.944 31.136 131.776 30.692 131.776 30.164V14.144C131.776 13.592 131.944 13.148 132.28 12.812C132.64 12.476 133.084 12.308 133.612 12.308C134.164 12.308 134.608 12.476 134.944 12.812C135.28 13.148 135.448 13.592 135.448 14.144V30.164C135.448 30.692 135.28 31.136 134.944 31.496C134.608 31.832 134.164 32 133.612 32ZM133.612 9.104C132.964 9.104 132.4 8.876 131.92 8.42C131.464 7.94 131.236 7.376 131.236 6.728C131.236 6.08 131.464 5.528 131.92 5.072C132.4 4.592 132.964 4.352 133.612 4.352C134.26 4.352 134.812 4.592 135.268 5.072C135.748 5.528 135.988 6.08 135.988 6.728C135.988 7.376 135.748 7.94 135.268 8.42C134.812 8.876 134.26 9.104 133.612 9.104ZM150.487 32.144C148.735 32.144 147.163 31.712 145.771 30.848C144.379 29.96 143.275 28.772 142.459 27.284C141.667 25.772 141.271 24.068 141.271 22.172C141.271 20.276 141.703 18.572 142.567 17.06C143.455 15.548 144.643 14.36 146.131 13.496C147.643 12.608 149.335 12.164 151.207 12.164C153.079 12.164 154.759 12.608 156.247 13.496C157.735 14.36 158.911 15.548 159.775 17.06C160.663 18.572 161.107 20.276 161.107 22.172H159.703C159.703 24.068 159.295 25.772 158.479 27.284C157.687 28.772 156.595 29.96 155.203 30.848C153.811 31.712 152.239 32.144 150.487 32.144ZM151.207 28.904C152.431 28.904 153.523 28.616 154.483 28.04C155.443 27.44 156.199 26.636 156.751 25.628C157.303 24.596 157.579 23.444 157.579 22.172C157.579 20.876 157.303 19.724 156.751 18.716C156.199 17.684 155.443 16.88 154.483 16.304C153.523 15.704 152.431 15.404 151.207 15.404C150.007 15.404 148.915 15.704 147.931 16.304C146.971 16.88 146.203 17.684 145.627 18.716C145.075 19.724 144.799 20.876 144.799 22.172C144.799 23.444 145.075 24.596 145.627 25.628C146.203 26.636 146.971 27.44 147.931 28.04C148.915 28.616 150.007 28.904 151.207 28.904ZM159.271 32.036C158.743 32.036 158.299 31.868 157.939 31.532C157.603 31.172 157.435 30.728 157.435 30.2V24.692L158.119 20.876L161.107 22.172V30.2C161.107 30.728 160.927 31.172 160.567 31.532C160.231 31.868 159.799 32.036 159.271 32.036Z" fill="black"/>
<path d="M58.7727 51.1818C57.9848 51.1818 57.2936 50.9943 56.6989 50.6193C56.108 50.2443 55.6458 49.7197 55.3125 49.0455C54.983 48.3712 54.8182 47.5833 54.8182 46.6818C54.8182 45.7727 54.983 44.9792 55.3125 44.3011C55.6458 43.6231 56.108 43.0966 56.6989 42.7216C57.2936 42.3466 57.9848 42.1591 58.7727 42.1591C59.5606 42.1591 60.25 42.3466 60.8409 42.7216C61.4356 43.0966 61.8977 43.6231 62.2273 44.3011C62.5606 44.9792 62.7273 45.7727 62.7273 46.6818C62.7273 47.5833 62.5606 48.3712 62.2273 49.0455C61.8977 49.7197 61.4356 50.2443 60.8409 50.6193C60.25 50.9943 59.5606 51.1818 58.7727 51.1818ZM58.7727 49.9773C59.3712 49.9773 59.8636 49.8239 60.25 49.517C60.6364 49.2102 60.9223 48.8068 61.108 48.3068C61.2936 47.8068 61.3864 47.2652 61.3864 46.6818C61.3864 46.0985 61.2936 45.5549 61.108 45.0511C60.9223 44.5473 60.6364 44.1402 60.25 43.8295C59.8636 43.5189 59.3712 43.3636 58.7727 43.3636C58.1742 43.3636 57.6818 43.5189 57.2955 43.8295C56.9091 44.1402 56.6231 44.5473 56.4375 45.0511C56.2519 45.5549 56.1591 46.0985 56.1591 46.6818C56.1591 47.2652 56.2519 47.8068 56.4375 48.3068C56.6231 48.8068 56.9091 49.2102 57.2955 49.517C57.6818 49.8239 58.1742 49.9773 58.7727 49.9773ZM66.1151 45.75V51H64.7741V42.2727H66.0696V43.6364H66.1832C66.3878 43.1932 66.6984 42.8371 67.1151 42.5682C67.5317 42.2955 68.0696 42.1591 68.7287 42.1591C69.3196 42.1591 69.8366 42.2803 70.2798 42.5227C70.723 42.7614 71.0677 43.125 71.3139 43.6136C71.5601 44.0985 71.6832 44.7121 71.6832 45.4545V51H70.3423V45.5455C70.3423 44.8598 70.1643 44.3258 69.8082 43.9432C69.4522 43.5568 68.9635 43.3636 68.3423 43.3636C67.9143 43.3636 67.5317 43.4564 67.1946 43.642C66.8613 43.8277 66.598 44.0985 66.4048 44.4545C66.2116 44.8106 66.1151 45.2424 66.1151 45.75ZM77.7926 51.1818C76.9517 51.1818 76.2263 50.9962 75.6165 50.625C75.0104 50.25 74.5426 49.7273 74.2131 49.0568C73.8873 48.3826 73.7244 47.5985 73.7244 46.7045C73.7244 45.8106 73.8873 45.0227 74.2131 44.3409C74.5426 43.6553 75.0009 43.1212 75.5881 42.7386C76.179 42.3523 76.8684 42.1591 77.6562 42.1591C78.1108 42.1591 78.5597 42.2348 79.0028 42.3864C79.446 42.5379 79.8494 42.7841 80.2131 43.125C80.5767 43.4621 80.8665 43.9091 81.0824 44.4659C81.2983 45.0227 81.4062 45.7083 81.4062 46.5227V47.0909H74.679V45.9318H80.0426C80.0426 45.4394 79.9441 45 79.7472 44.6136C79.554 44.2273 79.2775 43.9223 78.9176 43.6989C78.5616 43.4754 78.1411 43.3636 77.6562 43.3636C77.1222 43.3636 76.66 43.4962 76.2699 43.7614C75.8835 44.0227 75.5862 44.3636 75.3778 44.7841C75.1695 45.2045 75.0653 45.6553 75.0653 46.1364V46.9091C75.0653 47.5682 75.179 48.1269 75.4062 48.5852C75.6373 49.0398 75.9574 49.3864 76.3665 49.625C76.7756 49.8598 77.2509 49.9773 77.7926 49.9773C78.1449 49.9773 78.4631 49.928 78.7472 49.8295C79.035 49.7273 79.2831 49.5758 79.4915 49.375C79.6998 49.1705 79.8608 48.9167 79.9744 48.6136L81.2699 48.9773C81.1335 49.4167 80.9044 49.803 80.5824 50.1364C80.2604 50.4659 79.8627 50.7235 79.3892 50.9091C78.9157 51.0909 78.3835 51.1818 77.7926 51.1818ZM87.946 54.2727V42.2727H89.2415V43.6591H89.4006C89.4991 43.5076 89.6354 43.3144 89.8097 43.0795C89.9877 42.8409 90.2415 42.6288 90.571 42.4432C90.9044 42.2538 91.3551 42.1591 91.9233 42.1591C92.6581 42.1591 93.3059 42.3428 93.8665 42.7102C94.4271 43.0777 94.8646 43.5985 95.179 44.2727C95.4934 44.947 95.6506 45.7424 95.6506 46.6591C95.6506 47.5833 95.4934 48.3845 95.179 49.0625C94.8646 49.7367 94.429 50.2595 93.8722 50.6307C93.3153 50.9981 92.6733 51.1818 91.946 51.1818C91.3854 51.1818 90.9366 51.089 90.5994 50.9034C90.2623 50.714 90.0028 50.5 89.821 50.2614C89.6392 50.0189 89.4991 49.8182 89.4006 49.6591H89.2869V54.2727H87.946ZM89.2642 46.6364C89.2642 47.2955 89.3608 47.8769 89.554 48.3807C89.7472 48.8807 90.0294 49.2727 90.4006 49.5568C90.7718 49.8371 91.2263 49.9773 91.7642 49.9773C92.3248 49.9773 92.7926 49.8295 93.1676 49.5341C93.5464 49.2348 93.8305 48.8333 94.0199 48.3295C94.2131 47.822 94.3097 47.2576 94.3097 46.6364C94.3097 46.0227 94.215 45.4697 94.0256 44.9773C93.84 44.4811 93.5578 44.089 93.179 43.8011C92.804 43.5095 92.3324 43.3636 91.7642 43.3636C91.2188 43.3636 90.7604 43.5019 90.3892 43.7784C90.018 44.0511 89.7377 44.4337 89.5483 44.9261C89.3589 45.4148 89.2642 45.9848 89.2642 46.6364ZM99.0369 39.3636V51H97.696V39.3636H99.0369ZM104.061 51.2045C103.508 51.2045 103.006 51.1004 102.555 50.892C102.105 50.6799 101.747 50.375 101.482 49.9773C101.216 49.5758 101.084 49.0909 101.084 48.5227C101.084 48.0227 101.182 47.6174 101.379 47.3068C101.576 46.9924 101.839 46.7462 102.169 46.5682C102.499 46.3902 102.862 46.2576 103.26 46.1705C103.661 46.0795 104.065 46.0076 104.47 45.9545C105 45.8864 105.43 45.8352 105.76 45.8011C106.093 45.7633 106.336 45.7008 106.487 45.6136C106.643 45.5265 106.72 45.375 106.72 45.1591V45.1136C106.72 44.553 106.567 44.1174 106.26 43.8068C105.957 43.4962 105.497 43.3409 104.879 43.3409C104.239 43.3409 103.737 43.4811 103.374 43.7614C103.01 44.0417 102.754 44.3409 102.607 44.6591L101.334 44.2045C101.561 43.6742 101.864 43.2614 102.243 42.9659C102.625 42.6667 103.042 42.4583 103.493 42.3409C103.947 42.2197 104.394 42.1591 104.834 42.1591C105.114 42.1591 105.436 42.1932 105.8 42.2614C106.167 42.3258 106.521 42.4602 106.862 42.6648C107.207 42.8693 107.493 43.178 107.72 43.5909C107.947 44.0038 108.061 44.5568 108.061 45.25V51H106.72V49.8182H106.652C106.561 50.0076 106.41 50.2102 106.197 50.4261C105.985 50.642 105.703 50.8258 105.351 50.9773C104.999 51.1288 104.569 51.2045 104.061 51.2045ZM104.266 50C104.796 50 105.243 49.8958 105.607 49.6875C105.974 49.4792 106.25 49.2102 106.436 48.8807C106.625 48.5511 106.72 48.2045 106.72 47.8409V46.6136C106.663 46.6818 106.538 46.7443 106.345 46.8011C106.156 46.8542 105.936 46.9015 105.686 46.9432C105.44 46.9811 105.199 47.0152 104.964 47.0455C104.733 47.072 104.546 47.0947 104.402 47.1136C104.054 47.1591 103.728 47.233 103.425 47.3352C103.125 47.4337 102.883 47.5833 102.697 47.7841C102.516 47.9811 102.425 48.25 102.425 48.5909C102.425 49.0568 102.597 49.4091 102.942 49.6477C103.29 49.8826 103.732 50 104.266 50ZM114.304 42.2727V43.4091H109.781V42.2727H114.304ZM111.099 40.1818H112.44V48.5C112.44 48.8788 112.495 49.1629 112.605 49.3523C112.719 49.5379 112.863 49.6629 113.037 49.7273C113.215 49.7879 113.402 49.8182 113.599 49.8182C113.747 49.8182 113.868 49.8106 113.963 49.7955C114.058 49.7765 114.134 49.7614 114.19 49.75L114.463 50.9545C114.372 50.9886 114.245 51.0227 114.082 51.0568C113.92 51.0947 113.713 51.1136 113.463 51.1136C113.084 51.1136 112.713 51.0322 112.349 50.8693C111.99 50.7064 111.69 50.4583 111.452 50.125C111.217 49.7917 111.099 49.3712 111.099 48.8636V40.1818ZM120.207 42.2727V43.4091H115.503V42.2727H120.207ZM116.912 51V41.0682C116.912 40.5682 117.029 40.1515 117.264 39.8182C117.499 39.4848 117.804 39.2348 118.179 39.0682C118.554 38.9015 118.95 38.8182 119.366 38.8182C119.696 38.8182 119.965 38.8447 120.173 38.8977C120.382 38.9508 120.537 39 120.639 39.0455L120.253 40.2045C120.185 40.1818 120.09 40.1534 119.969 40.1193C119.851 40.0852 119.696 40.0682 119.503 40.0682C119.06 40.0682 118.74 40.1799 118.543 40.4034C118.349 40.6269 118.253 40.9545 118.253 41.3864V51H116.912ZM125.273 51.1818C124.485 51.1818 123.794 50.9943 123.199 50.6193C122.608 50.2443 122.146 49.7197 121.812 49.0455C121.483 48.3712 121.318 47.5833 121.318 46.6818C121.318 45.7727 121.483 44.9792 121.812 44.3011C122.146 43.6231 122.608 43.0966 123.199 42.7216C123.794 42.3466 124.485 42.1591 125.273 42.1591C126.061 42.1591 126.75 42.3466 127.341 42.7216C127.936 43.0966 128.398 43.6231 128.727 44.3011C129.061 44.9792 129.227 45.7727 129.227 46.6818C129.227 47.5833 129.061 48.3712 128.727 49.0455C128.398 49.7197 127.936 50.2443 127.341 50.6193C126.75 50.9943 126.061 51.1818 125.273 51.1818ZM125.273 49.9773C125.871 49.9773 126.364 49.8239 126.75 49.517C127.136 49.2102 127.422 48.8068 127.608 48.3068C127.794 47.8068 127.886 47.2652 127.886 46.6818C127.886 46.0985 127.794 45.5549 127.608 45.0511C127.422 44.5473 127.136 44.1402 126.75 43.8295C126.364 43.5189 125.871 43.3636 125.273 43.3636C124.674 43.3636 124.182 43.5189 123.795 43.8295C123.409 44.1402 123.123 44.5473 122.938 45.0511C122.752 45.5549 122.659 46.0985 122.659 46.6818C122.659 47.2652 122.752 47.8068 122.938 48.3068C123.123 48.8068 123.409 49.2102 123.795 49.517C124.182 49.8239 124.674 49.9773 125.273 49.9773ZM131.274 51V42.2727H132.57V43.5909H132.661C132.82 43.1591 133.107 42.8087 133.524 42.5398C133.941 42.2708 134.411 42.1364 134.933 42.1364C135.032 42.1364 135.155 42.1383 135.303 42.142C135.45 42.1458 135.562 42.1515 135.638 42.1591V43.5227C135.592 43.5114 135.488 43.4943 135.325 43.4716C135.166 43.4451 134.998 43.4318 134.82 43.4318C134.395 43.4318 134.017 43.5208 133.683 43.6989C133.354 43.8731 133.092 44.1155 132.899 44.4261C132.71 44.733 132.615 45.0833 132.615 45.4773V51H131.274ZM137.227 51V42.2727H138.523V43.6364H138.636C138.818 43.1705 139.112 42.8087 139.517 42.5511C139.922 42.2898 140.409 42.1591 140.977 42.1591C141.553 42.1591 142.032 42.2898 142.415 42.5511C142.801 42.8087 143.102 43.1705 143.318 43.6364H143.409C143.633 43.1856 143.968 42.8277 144.415 42.5625C144.862 42.2936 145.398 42.1591 146.023 42.1591C146.803 42.1591 147.441 42.4034 147.938 42.892C148.434 43.3769 148.682 44.1326 148.682 45.1591V51H147.341V45.1591C147.341 44.5152 147.165 44.0549 146.812 43.7784C146.46 43.5019 146.045 43.3636 145.568 43.3636C144.955 43.3636 144.479 43.5492 144.142 43.9205C143.805 44.2879 143.636 44.7538 143.636 45.3182V51H142.273V45.0227C142.273 44.5265 142.112 44.1269 141.79 43.8239C141.468 43.517 141.053 43.3636 140.545 43.3636C140.197 43.3636 139.871 43.4564 139.568 43.642C139.269 43.8277 139.027 44.0852 138.841 44.4148C138.659 44.7405 138.568 45.1174 138.568 45.5455V51H137.227ZM159.52 42.2727V43.4091H154.815V42.2727H159.52ZM156.224 51V41.0682C156.224 40.5682 156.342 40.1515 156.577 39.8182C156.812 39.4848 157.116 39.2348 157.491 39.0682C157.866 38.9015 158.262 38.8182 158.679 38.8182C159.009 38.8182 159.277 38.8447 159.486 38.8977C159.694 38.9508 159.849 39 159.952 39.0455L159.565 40.2045C159.497 40.1818 159.402 40.1534 159.281 40.1193C159.164 40.0852 159.009 40.0682 158.815 40.0682C158.372 40.0682 158.052 40.1799 157.855 40.4034C157.662 40.6269 157.565 40.9545 157.565 41.3864V51H156.224ZM164.585 51.1818C163.797 51.1818 163.106 50.9943 162.511 50.6193C161.92 50.2443 161.458 49.7197 161.125 49.0455C160.795 48.3712 160.631 47.5833 160.631 46.6818C160.631 45.7727 160.795 44.9792 161.125 44.3011C161.458 43.6231 161.92 43.0966 162.511 42.7216C163.106 42.3466 163.797 42.1591 164.585 42.1591C165.373 42.1591 166.063 42.3466 166.653 42.7216C167.248 43.0966 167.71 43.6231 168.04 44.3011C168.373 44.9792 168.54 45.7727 168.54 46.6818C168.54 47.5833 168.373 48.3712 168.04 49.0455C167.71 49.7197 167.248 50.2443 166.653 50.6193C166.063 50.9943 165.373 51.1818 164.585 51.1818ZM164.585 49.9773C165.184 49.9773 165.676 49.8239 166.062 49.517C166.449 49.2102 166.735 48.8068 166.92 48.3068C167.106 47.8068 167.199 47.2652 167.199 46.6818C167.199 46.0985 167.106 45.5549 166.92 45.0511C166.735 44.5473 166.449 44.1402 166.062 43.8295C165.676 43.5189 165.184 43.3636 164.585 43.3636C163.987 43.3636 163.494 43.5189 163.108 43.8295C162.722 44.1402 162.436 44.5473 162.25 45.0511C162.064 45.5549 161.972 46.0985 161.972 46.6818C161.972 47.2652 162.064 47.8068 162.25 48.3068C162.436 48.8068 162.722 49.2102 163.108 49.517C163.494 49.8239 163.987 49.9773 164.585 49.9773ZM170.587 51V42.2727H171.882V43.5909H171.973C172.132 43.1591 172.42 42.8087 172.837 42.5398C173.253 42.2708 173.723 42.1364 174.246 42.1364C174.344 42.1364 174.467 42.1383 174.615 42.142C174.763 42.1458 174.875 42.1515 174.95 42.1591V43.5227C174.905 43.5114 174.801 43.4943 174.638 43.4716C174.479 43.4451 174.31 43.4318 174.132 43.4318C173.708 43.4318 173.329 43.5208 172.996 43.6989C172.666 43.8731 172.405 44.1155 172.212 44.4261C172.022 44.733 171.928 45.0833 171.928 45.4773V51H170.587ZM183.608 51.2045C183.055 51.2045 182.553 51.1004 182.102 50.892C181.652 50.6799 181.294 50.375 181.028 49.9773C180.763 49.5758 180.631 49.0909 180.631 48.5227C180.631 48.0227 180.729 47.6174 180.926 47.3068C181.123 46.9924 181.386 46.7462 181.716 46.5682C182.045 46.3902 182.409 46.2576 182.807 46.1705C183.208 46.0795 183.612 46.0076 184.017 45.9545C184.547 45.8864 184.977 45.8352 185.307 45.8011C185.64 45.7633 185.883 45.7008 186.034 45.6136C186.189 45.5265 186.267 45.375 186.267 45.1591V45.1136C186.267 44.553 186.114 44.1174 185.807 43.8068C185.504 43.4962 185.044 43.3409 184.426 43.3409C183.786 43.3409 183.284 43.4811 182.92 43.7614C182.557 44.0417 182.301 44.3409 182.153 44.6591L180.881 44.2045C181.108 43.6742 181.411 43.2614 181.79 42.9659C182.172 42.6667 182.589 42.4583 183.04 42.3409C183.494 42.2197 183.941 42.1591 184.381 42.1591C184.661 42.1591 184.983 42.1932 185.347 42.2614C185.714 42.3258 186.068 42.4602 186.409 42.6648C186.754 42.8693 187.04 43.178 187.267 43.5909C187.494 44.0038 187.608 44.5568 187.608 45.25V51H186.267V49.8182H186.199C186.108 50.0076 185.956 50.2102 185.744 50.4261C185.532 50.642 185.25 50.8258 184.898 50.9773C184.545 51.1288 184.116 51.2045 183.608 51.2045ZM183.812 50C184.343 50 184.79 49.8958 185.153 49.6875C185.521 49.4792 185.797 49.2102 185.983 48.8807C186.172 48.5511 186.267 48.2045 186.267 47.8409V46.6136C186.21 46.6818 186.085 46.7443 185.892 46.8011C185.703 46.8542 185.483 46.9015 185.233 46.9432C184.987 46.9811 184.746 47.0152 184.511 47.0455C184.28 47.072 184.093 47.0947 183.949 47.1136C183.6 47.1591 183.275 47.233 182.972 47.3352C182.672 47.4337 182.43 47.5833 182.244 47.7841C182.063 47.9811 181.972 48.25 181.972 48.5909C181.972 49.0568 182.144 49.4091 182.489 49.6477C182.837 49.8826 183.278 50 183.812 50ZM191.396 39.3636V51H190.055V39.3636H191.396ZM195.193 39.3636V51H193.852V39.3636H195.193ZM203.013 54.2727C202.786 54.2727 202.583 54.2538 202.405 54.2159C202.227 54.1818 202.104 54.1477 202.036 54.1136L202.376 52.9318C202.702 53.0152 202.99 53.0455 203.24 53.0227C203.49 53 203.712 52.8883 203.905 52.6875C204.102 52.4905 204.282 52.1705 204.445 51.7273L204.695 51.0455L201.467 42.2727H202.922L205.331 49.2273H205.422L207.831 42.2727H209.286L205.581 52.2727C205.414 52.7235 205.208 53.0966 204.962 53.392C204.715 53.6913 204.429 53.9129 204.104 54.0568C203.782 54.2008 203.418 54.2727 203.013 54.2727ZM214.288 51.1818C213.5 51.1818 212.809 50.9943 212.214 50.6193C211.624 50.2443 211.161 49.7197 210.828 49.0455C210.499 48.3712 210.334 47.5833 210.334 46.6818C210.334 45.7727 210.499 44.9792 210.828 44.3011C211.161 43.6231 211.624 43.0966 212.214 42.7216C212.809 42.3466 213.5 42.1591 214.288 42.1591C215.076 42.1591 215.766 42.3466 216.357 42.7216C216.951 43.0966 217.413 43.6231 217.743 44.3011C218.076 44.9792 218.243 45.7727 218.243 46.6818C218.243 47.5833 218.076 48.3712 217.743 49.0455C217.413 49.7197 216.951 50.2443 216.357 50.6193C215.766 50.9943 215.076 51.1818 214.288 51.1818ZM214.288 49.9773C214.887 49.9773 215.379 49.8239 215.766 49.517C216.152 49.2102 216.438 48.8068 216.624 48.3068C216.809 47.8068 216.902 47.2652 216.902 46.6818C216.902 46.0985 216.809 45.5549 216.624 45.0511C216.438 44.5473 216.152 44.1402 215.766 43.8295C215.379 43.5189 214.887 43.3636 214.288 43.3636C213.69 43.3636 213.197 43.5189 212.811 43.8295C212.425 44.1402 212.139 44.5473 211.953 45.0511C211.768 45.5549 211.675 46.0985 211.675 46.6818C211.675 47.2652 211.768 47.8068 211.953 48.3068C212.139 48.8068 212.425 49.2102 212.811 49.517C213.197 49.8239 213.69 49.9773 214.288 49.9773ZM225.79 47.4318V42.2727H227.131V51H225.79V49.5227H225.699C225.494 49.9659 225.176 50.3428 224.744 50.6534C224.313 50.9602 223.767 51.1136 223.108 51.1136C222.562 51.1136 222.078 50.9943 221.653 50.7557C221.229 50.5133 220.896 50.1496 220.653 49.6648C220.411 49.1761 220.29 48.5606 220.29 47.8182V42.2727H221.631V47.7273C221.631 48.3636 221.809 48.8712 222.165 49.25C222.525 49.6288 222.983 49.8182 223.54 49.8182C223.873 49.8182 224.212 49.733 224.557 49.5625C224.905 49.392 225.197 49.1307 225.432 48.7784C225.67 48.4261 225.79 47.9773 225.79 47.4318ZM229.587 51V42.2727H230.882V43.5909H230.973C231.132 43.1591 231.42 42.8087 231.837 42.5398C232.253 42.2708 232.723 42.1364 233.246 42.1364C233.344 42.1364 233.467 42.1383 233.615 42.142C233.763 42.1458 233.875 42.1515 233.95 42.1591V43.5227C233.905 43.5114 233.801 43.4943 233.638 43.4716C233.479 43.4451 233.31 43.4318 233.132 43.4318C232.708 43.4318 232.329 43.5208 231.996 43.6989C231.666 43.8731 231.405 44.1155 231.212 44.4261C231.022 44.733 230.928 45.0833 230.928 45.4773V51H229.587ZM241.381 45.75V51H240.04V42.2727H241.335V43.6364H241.449C241.653 43.1932 241.964 42.8371 242.381 42.5682C242.797 42.2955 243.335 42.1591 243.994 42.1591C244.585 42.1591 245.102 42.2803 245.545 42.5227C245.989 42.7614 246.333 43.125 246.58 43.6136C246.826 44.0985 246.949 44.7121 246.949 45.4545V51H245.608V45.5455C245.608 44.8598 245.43 44.3258 245.074 43.9432C244.718 43.5568 244.229 43.3636 243.608 43.3636C243.18 43.3636 242.797 43.4564 242.46 43.642C242.127 43.8277 241.864 44.0985 241.67 44.4545C241.477 44.8106 241.381 45.2424 241.381 45.75ZM253.058 51.1818C252.217 51.1818 251.492 50.9962 250.882 50.625C250.276 50.25 249.808 49.7273 249.479 49.0568C249.153 48.3826 248.99 47.5985 248.99 46.7045C248.99 45.8106 249.153 45.0227 249.479 44.3409C249.808 43.6553 250.267 43.1212 250.854 42.7386C251.445 42.3523 252.134 42.1591 252.922 42.1591C253.376 42.1591 253.825 42.2348 254.268 42.3864C254.712 42.5379 255.115 42.7841 255.479 43.125C255.842 43.4621 256.132 43.9091 256.348 44.4659C256.564 45.0227 256.672 45.7083 256.672 46.5227V47.0909H249.945V45.9318H255.308C255.308 45.4394 255.21 45 255.013 44.6136C254.82 44.2273 254.543 43.9223 254.183 43.6989C253.827 43.4754 253.407 43.3636 252.922 43.3636C252.388 43.3636 251.926 43.4962 251.536 43.7614C251.149 44.0227 250.852 44.3636 250.643 44.7841C250.435 45.2045 250.331 45.6553 250.331 46.1364V46.9091C250.331 47.5682 250.445 48.1269 250.672 48.5852C250.903 49.0398 251.223 49.3864 251.632 49.625C252.041 49.8598 252.517 49.9773 253.058 49.9773C253.411 49.9773 253.729 49.928 254.013 49.8295C254.301 49.7273 254.549 49.5758 254.757 49.375C254.965 49.1705 255.126 48.9167 255.24 48.6136L256.536 48.9773C256.399 49.4167 256.17 49.803 255.848 50.1364C255.526 50.4659 255.128 50.7235 254.655 50.9091C254.181 51.0909 253.649 51.1818 253.058 51.1818ZM262.371 51.1818C261.53 51.1818 260.804 50.9962 260.195 50.625C259.589 50.25 259.121 49.7273 258.791 49.0568C258.465 48.3826 258.303 47.5985 258.303 46.7045C258.303 45.8106 258.465 45.0227 258.791 44.3409C259.121 43.6553 259.579 43.1212 260.166 42.7386C260.757 42.3523 261.446 42.1591 262.234 42.1591C262.689 42.1591 263.138 42.2348 263.581 42.3864C264.024 42.5379 264.428 42.7841 264.791 43.125C265.155 43.4621 265.445 43.9091 265.661 44.4659C265.876 45.0227 265.984 45.7083 265.984 46.5227V47.0909H259.257V45.9318H264.621C264.621 45.4394 264.522 45 264.325 44.6136C264.132 44.2273 263.856 43.9223 263.496 43.6989C263.14 43.4754 262.719 43.3636 262.234 43.3636C261.7 43.3636 261.238 43.4962 260.848 43.7614C260.462 44.0227 260.164 44.3636 259.956 44.7841C259.748 45.2045 259.643 45.6553 259.643 46.1364V46.9091C259.643 47.5682 259.757 48.1269 259.984 48.5852C260.215 49.0398 260.536 49.3864 260.945 49.625C261.354 49.8598 261.829 49.9773 262.371 49.9773C262.723 49.9773 263.041 49.928 263.325 49.8295C263.613 49.7273 263.861 49.5758 264.07 49.375C264.278 49.1705 264.439 48.9167 264.553 48.6136L265.848 48.9773C265.712 49.4167 265.482 49.803 265.161 50.1364C264.839 50.4659 264.441 50.7235 263.967 50.9091C263.494 51.0909 262.962 51.1818 262.371 51.1818ZM271.32 51.1818C270.592 51.1818 269.95 50.9981 269.393 50.6307C268.837 50.2595 268.401 49.7367 268.087 49.0625C267.772 48.3845 267.615 47.5833 267.615 46.6591C267.615 45.7424 267.772 44.947 268.087 44.2727C268.401 43.5985 268.839 43.0777 269.399 42.7102C269.96 42.3428 270.607 42.1591 271.342 42.1591C271.911 42.1591 272.359 42.2538 272.689 42.4432C273.022 42.6288 273.276 42.8409 273.45 43.0795C273.628 43.3144 273.767 43.5076 273.865 43.6591H273.979V39.3636H275.32V51H274.024V49.6591H273.865C273.767 49.8182 273.626 50.0189 273.445 50.2614C273.263 50.5 273.003 50.714 272.666 50.9034C272.329 51.089 271.88 51.1818 271.32 51.1818ZM271.501 49.9773C272.039 49.9773 272.494 49.8371 272.865 49.5568C273.236 49.2727 273.518 48.8807 273.712 48.3807C273.905 47.8769 274.001 47.2955 274.001 46.6364C274.001 45.9848 273.907 45.4148 273.717 44.9261C273.528 44.4337 273.248 44.0511 272.876 43.7784C272.505 43.5019 272.047 43.3636 271.501 43.3636C270.933 43.3636 270.46 43.5095 270.081 43.8011C269.706 44.089 269.424 44.4811 269.234 44.9773C269.049 45.4697 268.956 46.0227 268.956 46.6364C268.956 47.2576 269.051 47.822 269.24 48.3295C269.433 48.8333 269.717 49.2348 270.092 49.5341C270.471 49.8295 270.941 49.9773 271.501 49.9773ZM284.143 44.2273L282.939 44.5682C282.863 44.3674 282.751 44.1723 282.604 43.983C282.46 43.7898 282.263 43.6307 282.013 43.5057C281.763 43.3807 281.443 43.3182 281.053 43.3182C280.518 43.3182 280.073 43.4413 279.717 43.6875C279.365 43.9299 279.189 44.2386 279.189 44.6136C279.189 44.947 279.31 45.2102 279.553 45.4034C279.795 45.5966 280.174 45.7576 280.689 45.8864L281.984 46.2045C282.765 46.3939 283.346 46.6837 283.729 47.0739C284.111 47.4602 284.303 47.9583 284.303 48.5682C284.303 49.0682 284.159 49.5152 283.871 49.9091C283.587 50.303 283.189 50.6136 282.678 50.8409C282.166 51.0682 281.571 51.1818 280.893 51.1818C280.003 51.1818 279.267 50.9886 278.683 50.6023C278.1 50.2159 277.731 49.6515 277.575 48.9091L278.848 48.5909C278.969 49.0606 279.198 49.4129 279.536 49.6477C279.876 49.8826 280.321 50 280.871 50C281.496 50 281.992 49.8674 282.359 49.6023C282.731 49.3333 282.916 49.0114 282.916 48.6364C282.916 48.3333 282.81 48.0795 282.598 47.875C282.386 47.6667 282.06 47.5114 281.621 47.4091L280.166 47.0682C279.367 46.8788 278.78 46.5852 278.405 46.1875C278.034 45.786 277.848 45.2841 277.848 44.6818C277.848 44.1894 277.986 43.7538 278.263 43.375C278.543 42.9962 278.924 42.6989 279.405 42.483C279.89 42.267 280.439 42.1591 281.053 42.1591C281.916 42.1591 282.594 42.3485 283.087 42.7273C283.583 43.1061 283.935 43.6061 284.143 44.2273Z" fill="#797979"/>
<rect width="12" height="40" fill="#FF0000"/>
<rect y="52" width="12" height="52" transform="rotate(-90 0 52)" fill="#FF0000"/>
</svg>
