<svg width="164" height="55" viewBox="0 0 164 55" fill="none" xmlns="http://www.w3.org/2000/svg">
<path d="M30.26 32.36C28.58 32.36 27.08 32 25.76 31.28C24.464 30.536 23.444 29.516 22.7 28.22C21.98 26.9 21.62 25.4 21.62 23.72C21.62 23.168 21.8 22.724 22.16 22.388C22.52 22.028 22.964 21.848 23.492 21.848C24.044 21.848 24.488 22.028 24.824 22.388C25.184 22.724 25.364 23.168 25.364 23.72C25.364 24.752 25.568 25.664 25.976 26.456C26.408 27.248 26.984 27.872 27.704 28.328C28.448 28.76 29.3 28.976 30.26 28.976C31.22 28.976 32.072 28.76 32.816 28.328C33.56 27.872 34.136 27.248 34.544 26.456C34.976 25.664 35.192 24.752 35.192 23.72V5.756C35.192 5.204 35.36 4.76 35.696 4.424C36.056 4.064 36.5 3.884 37.028 3.884C37.58 3.884 38.036 4.064 38.396 4.424C38.756 4.76 38.936 5.204 38.936 5.756V23.72C38.936 25.4 38.564 26.9 37.82 28.22C37.076 29.516 36.056 30.536 34.76 31.28C33.464 32 31.964 32.36 30.26 32.36ZM53.9832 32.144C52.2312 32.144 50.6592 31.712 49.2672 30.848C47.8752 29.96 46.7712 28.772 45.9552 27.284C45.1632 25.772 44.7672 24.068 44.7672 22.172C44.7672 20.276 45.1992 18.572 46.0632 17.06C46.9512 15.548 48.1392 14.36 49.6272 13.496C51.1392 12.608 52.8312 12.164 54.7032 12.164C56.5752 12.164 58.2552 12.608 59.7432 13.496C61.2312 14.36 62.4072 15.548 63.2712 17.06C64.1592 18.572 64.6032 20.276 64.6032 22.172H63.1992C63.1992 24.068 62.7912 25.772 61.9752 27.284C61.1832 28.772 60.0912 29.96 58.6992 30.848C57.3072 31.712 55.7352 32.144 53.9832 32.144ZM54.7032 28.904C55.9272 28.904 57.0192 28.616 57.9792 28.04C58.9392 27.44 59.6952 26.636 60.2472 25.628C60.7992 24.596 61.0752 23.444 61.0752 22.172C61.0752 20.876 60.7992 19.724 60.2472 18.716C59.6952 17.684 58.9392 16.88 57.9792 16.304C57.0192 15.704 55.9272 15.404 54.7032 15.404C53.5032 15.404 52.4112 15.704 51.4272 16.304C50.4672 16.88 49.6992 17.684 49.1232 18.716C48.5712 19.724 48.2952 20.876 48.2952 22.172C48.2952 23.444 48.5712 24.596 49.1232 25.628C49.6992 26.636 50.4672 27.44 51.4272 28.04C52.4112 28.616 53.5032 28.904 54.7032 28.904ZM62.7672 32.036C62.2392 32.036 61.7952 31.868 61.4352 31.532C61.0992 31.172 60.9312 30.728 60.9312 30.2V24.692L61.6152 20.876L64.6032 22.172V30.2C64.6032 30.728 64.4232 31.172 64.0632 31.532C63.7272 31.868 63.2952 32.036 62.7672 32.036ZM77.2321 32.144C75.5521 32.144 73.9921 31.892 72.5521 31.388C71.1361 30.86 70.0321 30.2 69.2401 29.408C68.8801 29.024 68.7241 28.592 68.7721 28.112C68.8441 27.608 69.0841 27.2 69.4921 26.888C69.9721 26.504 70.4401 26.348 70.8961 26.42C71.3761 26.468 71.7841 26.672 72.1201 27.032C72.5281 27.488 73.1761 27.92 74.0641 28.328C74.9761 28.712 75.9841 28.904 77.0881 28.904C78.4801 28.904 79.5361 28.676 80.2561 28.22C81.0001 27.764 81.3841 27.176 81.4081 26.456C81.4321 25.736 81.0841 25.112 80.3641 24.584C79.6681 24.056 78.3841 23.624 76.5121 23.288C74.0881 22.808 72.3241 22.088 71.2201 21.128C70.1401 20.168 69.6001 18.992 69.6001 17.6C69.6001 16.376 69.9601 15.368 70.6801 14.576C71.4001 13.76 72.3241 13.16 73.4521 12.776C74.5801 12.368 75.7561 12.164 76.9801 12.164C78.5641 12.164 79.9681 12.416 81.1921 12.92C82.4161 13.424 83.3881 14.12 84.1081 15.008C84.4441 15.392 84.6001 15.8 84.5761 16.232C84.5521 16.64 84.3481 16.988 83.9641 17.276C83.5801 17.54 83.1241 17.624 82.5961 17.528C82.0681 17.432 81.6241 17.216 81.2641 16.88C80.6641 16.304 80.0161 15.908 79.3201 15.692C78.6241 15.476 77.8201 15.368 76.9081 15.368C75.8521 15.368 74.9521 15.548 74.2081 15.908C73.4881 16.268 73.1281 16.796 73.1281 17.492C73.1281 17.924 73.2361 18.32 73.4521 18.68C73.6921 19.016 74.1481 19.328 74.8201 19.616C75.4921 19.88 76.4761 20.144 77.7721 20.408C79.5721 20.768 80.9881 21.224 82.0201 21.776C83.0761 22.328 83.8321 22.976 84.2881 23.72C84.7441 24.44 84.9721 25.28 84.9721 26.24C84.9721 27.344 84.6721 28.34 84.0721 29.228C83.4961 30.116 82.6321 30.824 81.4801 31.352C80.3521 31.88 78.9361 32.144 77.2321 32.144ZM98.543 32.144C96.599 32.144 94.883 31.724 93.395 30.884C91.907 30.02 90.731 28.844 89.867 27.356C89.027 25.844 88.607 24.116 88.607 22.172C88.607 20.204 89.027 18.476 89.867 16.988C90.731 15.476 91.907 14.3 93.395 13.46C94.883 12.596 96.599 12.164 98.543 12.164C100.463 12.164 102.167 12.596 103.655 13.46C105.143 14.3 106.307 15.476 107.147 16.988C108.011 18.476 108.443 20.204 108.443 22.172C108.443 24.116 108.023 25.844 107.183 27.356C106.343 28.844 105.179 30.02 103.691 30.884C102.203 31.724 100.487 32.144 98.543 32.144ZM98.543 28.904C99.791 28.904 100.895 28.616 101.855 28.04C102.815 27.464 103.559 26.672 104.087 25.664C104.639 24.656 104.915 23.492 104.915 22.172C104.915 20.852 104.639 19.688 104.087 18.68C103.559 17.648 102.815 16.844 101.855 16.268C100.895 15.692 99.791 15.404 98.543 15.404C97.295 15.404 96.191 15.692 95.231 16.268C94.271 16.844 93.515 17.648 92.963 18.68C92.411 19.688 92.135 20.852 92.135 22.172C92.135 23.492 92.411 24.656 92.963 25.664C93.515 26.672 94.271 27.464 95.231 28.04C96.191 28.616 97.295 28.904 98.543 28.904ZM115.672 19.688C115.672 18.248 116.02 16.964 116.716 15.836C117.436 14.684 118.396 13.772 119.596 13.1C120.796 12.428 122.116 12.092 123.556 12.092C124.996 12.092 126.064 12.332 126.76 12.812C127.48 13.268 127.756 13.82 127.588 14.468C127.516 14.804 127.372 15.068 127.156 15.26C126.964 15.428 126.736 15.536 126.472 15.584C126.208 15.632 125.92 15.62 125.608 15.548C124.072 15.236 122.692 15.212 121.468 15.476C120.244 15.74 119.272 16.232 118.552 16.952C117.856 17.672 117.508 18.584 117.508 19.688H115.672ZM115.708 32C115.132 32 114.688 31.856 114.376 31.568C114.064 31.256 113.908 30.8 113.908 30.2V14.108C113.908 13.532 114.064 13.088 114.376 12.776C114.688 12.464 115.132 12.308 115.708 12.308C116.308 12.308 116.752 12.464 117.04 12.776C117.352 13.064 117.508 13.508 117.508 14.108V30.2C117.508 30.776 117.352 31.22 117.04 31.532C116.752 31.844 116.308 32 115.708 32ZM133.612 32C133.084 32 132.64 31.832 132.28 31.496C131.944 31.136 131.776 30.692 131.776 30.164V14.144C131.776 13.592 131.944 13.148 132.28 12.812C132.64 12.476 133.084 12.308 133.612 12.308C134.164 12.308 134.608 12.476 134.944 12.812C135.28 13.148 135.448 13.592 135.448 14.144V30.164C135.448 30.692 135.28 31.136 134.944 31.496C134.608 31.832 134.164 32 133.612 32ZM133.612 9.104C132.964 9.104 132.4 8.876 131.92 8.42C131.464 7.94 131.236 7.376 131.236 6.728C131.236 6.08 131.464 5.528 131.92 5.072C132.4 4.592 132.964 4.352 133.612 4.352C134.26 4.352 134.812 4.592 135.268 5.072C135.748 5.528 135.988 6.08 135.988 6.728C135.988 7.376 135.748 7.94 135.268 8.42C134.812 8.876 134.26 9.104 133.612 9.104ZM150.487 32.144C148.735 32.144 147.163 31.712 145.771 30.848C144.379 29.96 143.275 28.772 142.459 27.284C141.667 25.772 141.271 24.068 141.271 22.172C141.271 20.276 141.703 18.572 142.567 17.06C143.455 15.548 144.643 14.36 146.131 13.496C147.643 12.608 149.335 12.164 151.207 12.164C153.079 12.164 154.759 12.608 156.247 13.496C157.735 14.36 158.911 15.548 159.775 17.06C160.663 18.572 161.107 20.276 161.107 22.172H159.703C159.703 24.068 159.295 25.772 158.479 27.284C157.687 28.772 156.595 29.96 155.203 30.848C153.811 31.712 152.239 32.144 150.487 32.144ZM151.207 28.904C152.431 28.904 153.523 28.616 154.483 28.04C155.443 27.44 156.199 26.636 156.751 25.628C157.303 24.596 157.579 23.444 157.579 22.172C157.579 20.876 157.303 19.724 156.751 18.716C156.199 17.684 155.443 16.88 154.483 16.304C153.523 15.704 152.431 15.404 151.207 15.404C150.007 15.404 148.915 15.704 147.931 16.304C146.971 16.88 146.203 17.684 145.627 18.716C145.075 19.724 144.799 20.876 144.799 22.172C144.799 23.444 145.075 24.596 145.627 25.628C146.203 26.636 146.971 27.44 147.931 28.04C148.915 28.616 150.007 28.904 151.207 28.904ZM159.271 32.036C158.743 32.036 158.299 31.868 157.939 31.532C157.603 31.172 157.435 30.728 157.435 30.2V24.692L158.119 20.876L161.107 22.172V30.2C161.107 30.728 160.927 31.172 160.567 31.532C160.231 31.868 159.799 32.036 159.271 32.036Z" fill="black"/>
<path d="M45.2045 51L42.5455 42.2727H43.9545L45.8409 48.9545H45.9318L47.7955 42.2727H49.2273L51.0682 48.9318H51.1591L53.0455 42.2727H54.4545L51.7955 51H50.4773L48.5682 44.2955H48.4318L46.5227 51H45.2045ZM59.4759 51.1818C58.688 51.1818 57.9967 50.9943 57.402 50.6193C56.8111 50.2443 56.349 49.7197 56.0156 49.0455C55.6861 48.3712 55.5213 47.5833 55.5213 46.6818C55.5213 45.7727 55.6861 44.9792 56.0156 44.3011C56.349 43.6231 56.8111 43.0966 57.402 42.7216C57.9967 42.3466 58.688 42.1591 59.4759 42.1591C60.2637 42.1591 60.9531 42.3466 61.544 42.7216C62.1387 43.0966 62.6009 43.6231 62.9304 44.3011C63.2637 44.9792 63.4304 45.7727 63.4304 46.6818C63.4304 47.5833 63.2637 48.3712 62.9304 49.0455C62.6009 49.7197 62.1387 50.2443 61.544 50.6193C60.9531 50.9943 60.2637 51.1818 59.4759 51.1818ZM59.4759 49.9773C60.0743 49.9773 60.5668 49.8239 60.9531 49.517C61.3395 49.2102 61.6255 48.8068 61.8111 48.3068C61.9967 47.8068 62.0895 47.2652 62.0895 46.6818C62.0895 46.0985 61.9967 45.5549 61.8111 45.0511C61.6255 44.5473 61.3395 44.1402 60.9531 43.8295C60.5668 43.5189 60.0743 43.3636 59.4759 43.3636C58.8774 43.3636 58.3849 43.5189 57.9986 43.8295C57.6122 44.1402 57.3262 44.5473 57.1406 45.0511C56.955 45.5549 56.8622 46.0985 56.8622 46.6818C56.8622 47.2652 56.955 47.8068 57.1406 48.3068C57.3262 48.8068 57.6122 49.2102 57.9986 49.517C58.3849 49.8239 58.8774 49.9773 59.4759 49.9773ZM65.4773 51V42.2727H66.7727V43.5909H66.8636C67.0227 43.1591 67.3106 42.8087 67.7273 42.5398C68.1439 42.2708 68.6136 42.1364 69.1364 42.1364C69.2348 42.1364 69.358 42.1383 69.5057 42.142C69.6534 42.1458 69.7652 42.1515 69.8409 42.1591V43.5227C69.7955 43.5114 69.6913 43.4943 69.5284 43.4716C69.3693 43.4451 69.2008 43.4318 69.0227 43.4318C68.5985 43.4318 68.2197 43.5208 67.8864 43.6989C67.5568 43.8731 67.2955 44.1155 67.1023 44.4261C66.9129 44.733 66.8182 45.0833 66.8182 45.4773V51H65.4773ZM72.6804 47.8182L72.6577 46.1591H72.9304L76.7486 42.2727H78.4077L74.3395 46.3864H74.2259L72.6804 47.8182ZM71.4304 51V39.3636H72.7713V51H71.4304ZM76.9759 51L73.5668 46.6818L74.5213 45.75L78.6804 51H76.9759ZM86.3153 44.2273L85.1108 44.5682C85.035 44.3674 84.9233 44.1723 84.7756 43.983C84.6316 43.7898 84.4347 43.6307 84.1847 43.5057C83.9347 43.3807 83.6146 43.3182 83.2244 43.3182C82.6903 43.3182 82.2453 43.4413 81.8892 43.6875C81.5369 43.9299 81.3608 44.2386 81.3608 44.6136C81.3608 44.947 81.482 45.2102 81.7244 45.4034C81.9669 45.5966 82.3456 45.7576 82.8608 45.8864L84.1562 46.2045C84.9366 46.3939 85.518 46.6837 85.9006 47.0739C86.2831 47.4602 86.4744 47.9583 86.4744 48.5682C86.4744 49.0682 86.3305 49.5152 86.0426 49.9091C85.7585 50.303 85.3608 50.6136 84.8494 50.8409C84.3381 51.0682 83.7434 51.1818 83.0653 51.1818C82.1752 51.1818 81.4384 50.9886 80.8551 50.6023C80.2718 50.2159 79.9025 49.6515 79.7472 48.9091L81.0199 48.5909C81.1411 49.0606 81.3703 49.4129 81.7074 49.6477C82.0483 49.8826 82.4934 50 83.0426 50C83.6676 50 84.1638 49.8674 84.5312 49.6023C84.9025 49.3333 85.0881 49.0114 85.0881 48.6364C85.0881 48.3333 84.982 48.0795 84.7699 47.875C84.5578 47.6667 84.232 47.5114 83.7926 47.4091L82.3381 47.0682C81.5388 46.8788 80.9517 46.5852 80.5767 46.1875C80.2055 45.786 80.0199 45.2841 80.0199 44.6818C80.0199 44.1894 80.1581 43.7538 80.4347 43.375C80.715 42.9962 81.0956 42.6989 81.5767 42.483C82.0616 42.267 82.6108 42.1591 83.2244 42.1591C84.0881 42.1591 84.7661 42.3485 85.2585 42.7273C85.7547 43.1061 86.107 43.6061 86.3153 44.2273ZM96.8793 42.2727V43.4091H92.1747V42.2727H96.8793ZM93.5838 51V41.0682C93.5838 40.5682 93.7012 40.1515 93.9361 39.8182C94.1709 39.4848 94.4759 39.2348 94.8509 39.0682C95.2259 38.9015 95.6217 38.8182 96.0384 38.8182C96.3679 38.8182 96.6368 38.8447 96.8452 38.8977C97.0535 38.9508 97.2088 39 97.3111 39.0455L96.9247 40.2045C96.8565 40.1818 96.7618 40.1534 96.6406 40.1193C96.5232 40.0852 96.3679 40.0682 96.1747 40.0682C95.7315 40.0682 95.4115 40.1799 95.2145 40.4034C95.0213 40.6269 94.9247 40.9545 94.9247 41.3864V51H93.5838ZM101.945 51.1818C101.157 51.1818 100.465 50.9943 99.8707 50.6193C99.2798 50.2443 98.8177 49.7197 98.4844 49.0455C98.1548 48.3712 97.9901 47.5833 97.9901 46.6818C97.9901 45.7727 98.1548 44.9792 98.4844 44.3011C98.8177 43.6231 99.2798 43.0966 99.8707 42.7216C100.465 42.3466 101.157 42.1591 101.945 42.1591C102.732 42.1591 103.422 42.3466 104.013 42.7216C104.607 43.0966 105.07 43.6231 105.399 44.3011C105.732 44.9792 105.899 45.7727 105.899 46.6818C105.899 47.5833 105.732 48.3712 105.399 49.0455C105.07 49.7197 104.607 50.2443 104.013 50.6193C103.422 50.9943 102.732 51.1818 101.945 51.1818ZM101.945 49.9773C102.543 49.9773 103.036 49.8239 103.422 49.517C103.808 49.2102 104.094 48.8068 104.28 48.3068C104.465 47.8068 104.558 47.2652 104.558 46.6818C104.558 46.0985 104.465 45.5549 104.28 45.0511C104.094 44.5473 103.808 44.1402 103.422 43.8295C103.036 43.5189 102.543 43.3636 101.945 43.3636C101.346 43.3636 100.854 43.5189 100.467 43.8295C100.081 44.1402 99.795 44.5473 99.6094 45.0511C99.4238 45.5549 99.331 46.0985 99.331 46.6818C99.331 47.2652 99.4238 47.8068 99.6094 48.3068C99.795 48.8068 100.081 49.2102 100.467 49.517C100.854 49.8239 101.346 49.9773 101.945 49.9773ZM107.946 51V42.2727H109.241V43.5909H109.332C109.491 43.1591 109.779 42.8087 110.196 42.5398C110.613 42.2708 111.082 42.1364 111.605 42.1364C111.704 42.1364 111.827 42.1383 111.974 42.142C112.122 42.1458 112.234 42.1515 112.31 42.1591V43.5227C112.264 43.5114 112.16 43.4943 111.997 43.4716C111.838 43.4451 111.67 43.4318 111.491 43.4318C111.067 43.4318 110.688 43.5208 110.355 43.6989C110.026 43.8731 109.764 44.1155 109.571 44.4261C109.382 44.733 109.287 45.0833 109.287 45.4773V51H107.946ZM119.263 54.2727C119.036 54.2727 118.833 54.2538 118.655 54.2159C118.477 54.1818 118.354 54.1477 118.286 54.1136L118.626 52.9318C118.952 53.0152 119.24 53.0455 119.49 53.0227C119.74 53 119.962 52.8883 120.155 52.6875C120.352 52.4905 120.532 52.1705 120.695 51.7273L120.945 51.0455L117.717 42.2727H119.172L121.581 49.2273H121.672L124.081 42.2727H125.536L121.831 52.2727C121.664 52.7235 121.458 53.0966 121.212 53.392C120.965 53.6913 120.679 53.9129 120.354 54.0568C120.032 54.2008 119.668 54.2727 119.263 54.2727ZM130.538 51.1818C129.75 51.1818 129.059 50.9943 128.464 50.6193C127.874 50.2443 127.411 49.7197 127.078 49.0455C126.749 48.3712 126.584 47.5833 126.584 46.6818C126.584 45.7727 126.749 44.9792 127.078 44.3011C127.411 43.6231 127.874 43.0966 128.464 42.7216C129.059 42.3466 129.75 42.1591 130.538 42.1591C131.326 42.1591 132.016 42.3466 132.607 42.7216C133.201 43.0966 133.663 43.6231 133.993 44.3011C134.326 44.9792 134.493 45.7727 134.493 46.6818C134.493 47.5833 134.326 48.3712 133.993 49.0455C133.663 49.7197 133.201 50.2443 132.607 50.6193C132.016 50.9943 131.326 51.1818 130.538 51.1818ZM130.538 49.9773C131.137 49.9773 131.629 49.8239 132.016 49.517C132.402 49.2102 132.688 48.8068 132.874 48.3068C133.059 47.8068 133.152 47.2652 133.152 46.6818C133.152 46.0985 133.059 45.5549 132.874 45.0511C132.688 44.5473 132.402 44.1402 132.016 43.8295C131.629 43.5189 131.137 43.3636 130.538 43.3636C129.94 43.3636 129.447 43.5189 129.061 43.8295C128.675 44.1402 128.389 44.5473 128.203 45.0511C128.018 45.5549 127.925 46.0985 127.925 46.6818C127.925 47.2652 128.018 47.8068 128.203 48.3068C128.389 48.8068 128.675 49.2102 129.061 49.517C129.447 49.8239 129.94 49.9773 130.538 49.9773ZM142.04 47.4318V42.2727H143.381V51H142.04V49.5227H141.949C141.744 49.9659 141.426 50.3428 140.994 50.6534C140.563 50.9602 140.017 51.1136 139.358 51.1136C138.812 51.1136 138.328 50.9943 137.903 50.7557C137.479 50.5133 137.146 50.1496 136.903 49.6648C136.661 49.1761 136.54 48.5606 136.54 47.8182V42.2727H137.881V47.7273C137.881 48.3636 138.059 48.8712 138.415 49.25C138.775 49.6288 139.233 49.8182 139.79 49.8182C140.123 49.8182 140.462 49.733 140.807 49.5625C141.155 49.392 141.447 49.1307 141.682 48.7784C141.92 48.4261 142.04 47.9773 142.04 47.4318Z" fill="#797979"/>
<rect y="18" width="12" height="22" fill="#FF0000"/>
<rect y="52" width="12" height="34" transform="rotate(-90 0 52)" fill="#FF0000"/>
</svg>
