<svg width="310" height="55" viewBox="0 0 310 55" fill="none" xmlns="http://www.w3.org/2000/svg">
<path d="M30.26 32.36C28.58 32.36 27.08 32 25.76 31.28C24.464 30.536 23.444 29.516 22.7 28.22C21.98 26.9 21.62 25.4 21.62 23.72C21.62 23.168 21.8 22.724 22.16 22.388C22.52 22.028 22.964 21.848 23.492 21.848C24.044 21.848 24.488 22.028 24.824 22.388C25.184 22.724 25.364 23.168 25.364 23.72C25.364 24.752 25.568 25.664 25.976 26.456C26.408 27.248 26.984 27.872 27.704 28.328C28.448 28.76 29.3 28.976 30.26 28.976C31.22 28.976 32.072 28.76 32.816 28.328C33.56 27.872 34.136 27.248 34.544 26.456C34.976 25.664 35.192 24.752 35.192 23.72V5.756C35.192 5.204 35.36 4.76 35.696 4.424C36.056 4.064 36.5 3.884 37.028 3.884C37.58 3.884 38.036 4.064 38.396 4.424C38.756 4.76 38.936 5.204 38.936 5.756V23.72C38.936 25.4 38.564 26.9 37.82 28.22C37.076 29.516 36.056 30.536 34.76 31.28C33.464 32 31.964 32.36 30.26 32.36ZM53.9832 32.144C52.2312 32.144 50.6592 31.712 49.2672 30.848C47.8752 29.96 46.7712 28.772 45.9552 27.284C45.1632 25.772 44.7672 24.068 44.7672 22.172C44.7672 20.276 45.1992 18.572 46.0632 17.06C46.9512 15.548 48.1392 14.36 49.6272 13.496C51.1392 12.608 52.8312 12.164 54.7032 12.164C56.5752 12.164 58.2552 12.608 59.7432 13.496C61.2312 14.36 62.4072 15.548 63.2712 17.06C64.1592 18.572 64.6032 20.276 64.6032 22.172H63.1992C63.1992 24.068 62.7912 25.772 61.9752 27.284C61.1832 28.772 60.0912 29.96 58.6992 30.848C57.3072 31.712 55.7352 32.144 53.9832 32.144ZM54.7032 28.904C55.9272 28.904 57.0192 28.616 57.9792 28.04C58.9392 27.44 59.6952 26.636 60.2472 25.628C60.7992 24.596 61.0752 23.444 61.0752 22.172C61.0752 20.876 60.7992 19.724 60.2472 18.716C59.6952 17.684 58.9392 16.88 57.9792 16.304C57.0192 15.704 55.9272 15.404 54.7032 15.404C53.5032 15.404 52.4112 15.704 51.4272 16.304C50.4672 16.88 49.6992 17.684 49.1232 18.716C48.5712 19.724 48.2952 20.876 48.2952 22.172C48.2952 23.444 48.5712 24.596 49.1232 25.628C49.6992 26.636 50.4672 27.44 51.4272 28.04C52.4112 28.616 53.5032 28.904 54.7032 28.904ZM62.7672 32.036C62.2392 32.036 61.7952 31.868 61.4352 31.532C61.0992 31.172 60.9312 30.728 60.9312 30.2V24.692L61.6152 20.876L64.6032 22.172V30.2C64.6032 30.728 64.4232 31.172 64.0632 31.532C63.7272 31.868 63.2952 32.036 62.7672 32.036ZM77.2321 32.144C75.5521 32.144 73.9921 31.892 72.5521 31.388C71.1361 30.86 70.0321 30.2 69.2401 29.408C68.8801 29.024 68.7241 28.592 68.7721 28.112C68.8441 27.608 69.0841 27.2 69.4921 26.888C69.9721 26.504 70.4401 26.348 70.8961 26.42C71.3761 26.468 71.7841 26.672 72.1201 27.032C72.5281 27.488 73.1761 27.92 74.0641 28.328C74.9761 28.712 75.9841 28.904 77.0881 28.904C78.4801 28.904 79.5361 28.676 80.2561 28.22C81.0001 27.764 81.3841 27.176 81.4081 26.456C81.4321 25.736 81.0841 25.112 80.3641 24.584C79.6681 24.056 78.3841 23.624 76.5121 23.288C74.0881 22.808 72.3241 22.088 71.2201 21.128C70.1401 20.168 69.6001 18.992 69.6001 17.6C69.6001 16.376 69.9601 15.368 70.6801 14.576C71.4001 13.76 72.3241 13.16 73.4521 12.776C74.5801 12.368 75.7561 12.164 76.9801 12.164C78.5641 12.164 79.9681 12.416 81.1921 12.92C82.4161 13.424 83.3881 14.12 84.1081 15.008C84.4441 15.392 84.6001 15.8 84.5761 16.232C84.5521 16.64 84.3481 16.988 83.9641 17.276C83.5801 17.54 83.1241 17.624 82.5961 17.528C82.0681 17.432 81.6241 17.216 81.2641 16.88C80.6641 16.304 80.0161 15.908 79.3201 15.692C78.6241 15.476 77.8201 15.368 76.9081 15.368C75.8521 15.368 74.9521 15.548 74.2081 15.908C73.4881 16.268 73.1281 16.796 73.1281 17.492C73.1281 17.924 73.2361 18.32 73.4521 18.68C73.6921 19.016 74.1481 19.328 74.8201 19.616C75.4921 19.88 76.4761 20.144 77.7721 20.408C79.5721 20.768 80.9881 21.224 82.0201 21.776C83.0761 22.328 83.8321 22.976 84.2881 23.72C84.7441 24.44 84.9721 25.28 84.9721 26.24C84.9721 27.344 84.6721 28.34 84.0721 29.228C83.4961 30.116 82.6321 30.824 81.4801 31.352C80.3521 31.88 78.9361 32.144 77.2321 32.144ZM98.543 32.144C96.599 32.144 94.883 31.724 93.395 30.884C91.907 30.02 90.731 28.844 89.867 27.356C89.027 25.844 88.607 24.116 88.607 22.172C88.607 20.204 89.027 18.476 89.867 16.988C90.731 15.476 91.907 14.3 93.395 13.46C94.883 12.596 96.599 12.164 98.543 12.164C100.463 12.164 102.167 12.596 103.655 13.46C105.143 14.3 106.307 15.476 107.147 16.988C108.011 18.476 108.443 20.204 108.443 22.172C108.443 24.116 108.023 25.844 107.183 27.356C106.343 28.844 105.179 30.02 103.691 30.884C102.203 31.724 100.487 32.144 98.543 32.144ZM98.543 28.904C99.791 28.904 100.895 28.616 101.855 28.04C102.815 27.464 103.559 26.672 104.087 25.664C104.639 24.656 104.915 23.492 104.915 22.172C104.915 20.852 104.639 19.688 104.087 18.68C103.559 17.648 102.815 16.844 101.855 16.268C100.895 15.692 99.791 15.404 98.543 15.404C97.295 15.404 96.191 15.692 95.231 16.268C94.271 16.844 93.515 17.648 92.963 18.68C92.411 19.688 92.135 20.852 92.135 22.172C92.135 23.492 92.411 24.656 92.963 25.664C93.515 26.672 94.271 27.464 95.231 28.04C96.191 28.616 97.295 28.904 98.543 28.904ZM115.672 19.688C115.672 18.248 116.02 16.964 116.716 15.836C117.436 14.684 118.396 13.772 119.596 13.1C120.796 12.428 122.116 12.092 123.556 12.092C124.996 12.092 126.064 12.332 126.76 12.812C127.48 13.268 127.756 13.82 127.588 14.468C127.516 14.804 127.372 15.068 127.156 15.26C126.964 15.428 126.736 15.536 126.472 15.584C126.208 15.632 125.92 15.62 125.608 15.548C124.072 15.236 122.692 15.212 121.468 15.476C120.244 15.74 119.272 16.232 118.552 16.952C117.856 17.672 117.508 18.584 117.508 19.688H115.672ZM115.708 32C115.132 32 114.688 31.856 114.376 31.568C114.064 31.256 113.908 30.8 113.908 30.2V14.108C113.908 13.532 114.064 13.088 114.376 12.776C114.688 12.464 115.132 12.308 115.708 12.308C116.308 12.308 116.752 12.464 117.04 12.776C117.352 13.064 117.508 13.508 117.508 14.108V30.2C117.508 30.776 117.352 31.22 117.04 31.532C116.752 31.844 116.308 32 115.708 32ZM133.612 32C133.084 32 132.64 31.832 132.28 31.496C131.944 31.136 131.776 30.692 131.776 30.164V14.144C131.776 13.592 131.944 13.148 132.28 12.812C132.64 12.476 133.084 12.308 133.612 12.308C134.164 12.308 134.608 12.476 134.944 12.812C135.28 13.148 135.448 13.592 135.448 14.144V30.164C135.448 30.692 135.28 31.136 134.944 31.496C134.608 31.832 134.164 32 133.612 32ZM133.612 9.104C132.964 9.104 132.4 8.876 131.92 8.42C131.464 7.94 131.236 7.376 131.236 6.728C131.236 6.08 131.464 5.528 131.92 5.072C132.4 4.592 132.964 4.352 133.612 4.352C134.26 4.352 134.812 4.592 135.268 5.072C135.748 5.528 135.988 6.08 135.988 6.728C135.988 7.376 135.748 7.94 135.268 8.42C134.812 8.876 134.26 9.104 133.612 9.104ZM150.487 32.144C148.735 32.144 147.163 31.712 145.771 30.848C144.379 29.96 143.275 28.772 142.459 27.284C141.667 25.772 141.271 24.068 141.271 22.172C141.271 20.276 141.703 18.572 142.567 17.06C143.455 15.548 144.643 14.36 146.131 13.496C147.643 12.608 149.335 12.164 151.207 12.164C153.079 12.164 154.759 12.608 156.247 13.496C157.735 14.36 158.911 15.548 159.775 17.06C160.663 18.572 161.107 20.276 161.107 22.172H159.703C159.703 24.068 159.295 25.772 158.479 27.284C157.687 28.772 156.595 29.96 155.203 30.848C153.811 31.712 152.239 32.144 150.487 32.144ZM151.207 28.904C152.431 28.904 153.523 28.616 154.483 28.04C155.443 27.44 156.199 26.636 156.751 25.628C157.303 24.596 157.579 23.444 157.579 22.172C157.579 20.876 157.303 19.724 156.751 18.716C156.199 17.684 155.443 16.88 154.483 16.304C153.523 15.704 152.431 15.404 151.207 15.404C150.007 15.404 148.915 15.704 147.931 16.304C146.971 16.88 146.203 17.684 145.627 18.716C145.075 19.724 144.799 20.876 144.799 22.172C144.799 23.444 145.075 24.596 145.627 25.628C146.203 26.636 146.971 27.44 147.931 28.04C148.915 28.616 150.007 28.904 151.207 28.904ZM159.271 32.036C158.743 32.036 158.299 31.868 157.939 31.532C157.603 31.172 157.435 30.728 157.435 30.2V24.692L158.119 20.876L161.107 22.172V30.2C161.107 30.728 160.927 31.172 160.567 31.532C160.231 31.868 159.799 32.036 159.271 32.036Z" fill="black"/>
<path d="M58.7727 51.1818C57.9848 51.1818 57.2936 50.9943 56.6989 50.6193C56.108 50.2443 55.6458 49.7197 55.3125 49.0455C54.983 48.3712 54.8182 47.5833 54.8182 46.6818C54.8182 45.7727 54.983 44.9792 55.3125 44.3011C55.6458 43.6231 56.108 43.0966 56.6989 42.7216C57.2936 42.3466 57.9848 42.1591 58.7727 42.1591C59.5606 42.1591 60.25 42.3466 60.8409 42.7216C61.4356 43.0966 61.8977 43.6231 62.2273 44.3011C62.5606 44.9792 62.7273 45.7727 62.7273 46.6818C62.7273 47.5833 62.5606 48.3712 62.2273 49.0455C61.8977 49.7197 61.4356 50.2443 60.8409 50.6193C60.25 50.9943 59.5606 51.1818 58.7727 51.1818ZM58.7727 49.9773C59.3712 49.9773 59.8636 49.8239 60.25 49.517C60.6364 49.2102 60.9223 48.8068 61.108 48.3068C61.2936 47.8068 61.3864 47.2652 61.3864 46.6818C61.3864 46.0985 61.2936 45.5549 61.108 45.0511C60.9223 44.5473 60.6364 44.1402 60.25 43.8295C59.8636 43.5189 59.3712 43.3636 58.7727 43.3636C58.1742 43.3636 57.6818 43.5189 57.2955 43.8295C56.9091 44.1402 56.6231 44.5473 56.4375 45.0511C56.2519 45.5549 56.1591 46.0985 56.1591 46.6818C56.1591 47.2652 56.2519 47.8068 56.4375 48.3068C56.6231 48.8068 56.9091 49.2102 57.2955 49.517C57.6818 49.8239 58.1742 49.9773 58.7727 49.9773ZM66.1151 45.75V51H64.7741V42.2727H66.0696V43.6364H66.1832C66.3878 43.1932 66.6984 42.8371 67.1151 42.5682C67.5317 42.2955 68.0696 42.1591 68.7287 42.1591C69.3196 42.1591 69.8366 42.2803 70.2798 42.5227C70.723 42.7614 71.0677 43.125 71.3139 43.6136C71.5601 44.0985 71.6832 44.7121 71.6832 45.4545V51H70.3423V45.5455C70.3423 44.8598 70.1643 44.3258 69.8082 43.9432C69.4522 43.5568 68.9635 43.3636 68.3423 43.3636C67.9143 43.3636 67.5317 43.4564 67.1946 43.642C66.8613 43.8277 66.598 44.0985 66.4048 44.4545C66.2116 44.8106 66.1151 45.2424 66.1151 45.75ZM77.7926 51.1818C76.9517 51.1818 76.2263 50.9962 75.6165 50.625C75.0104 50.25 74.5426 49.7273 74.2131 49.0568C73.8873 48.3826 73.7244 47.5985 73.7244 46.7045C73.7244 45.8106 73.8873 45.0227 74.2131 44.3409C74.5426 43.6553 75.0009 43.1212 75.5881 42.7386C76.179 42.3523 76.8684 42.1591 77.6562 42.1591C78.1108 42.1591 78.5597 42.2348 79.0028 42.3864C79.446 42.5379 79.8494 42.7841 80.2131 43.125C80.5767 43.4621 80.8665 43.9091 81.0824 44.4659C81.2983 45.0227 81.4062 45.7083 81.4062 46.5227V47.0909H74.679V45.9318H80.0426C80.0426 45.4394 79.9441 45 79.7472 44.6136C79.554 44.2273 79.2775 43.9223 78.9176 43.6989C78.5616 43.4754 78.1411 43.3636 77.6562 43.3636C77.1222 43.3636 76.66 43.4962 76.2699 43.7614C75.8835 44.0227 75.5862 44.3636 75.3778 44.7841C75.1695 45.2045 75.0653 45.6553 75.0653 46.1364V46.9091C75.0653 47.5682 75.179 48.1269 75.4062 48.5852C75.6373 49.0398 75.9574 49.3864 76.3665 49.625C76.7756 49.8598 77.2509 49.9773 77.7926 49.9773C78.1449 49.9773 78.4631 49.928 78.7472 49.8295C79.035 49.7273 79.2831 49.5758 79.4915 49.375C79.6998 49.1705 79.8608 48.9167 79.9744 48.6136L81.2699 48.9773C81.1335 49.4167 80.9044 49.803 80.5824 50.1364C80.2604 50.4659 79.8627 50.7235 79.3892 50.9091C78.9157 51.0909 78.3835 51.1818 77.7926 51.1818ZM87.946 54.2727V42.2727H89.2415V43.6591H89.4006C89.4991 43.5076 89.6354 43.3144 89.8097 43.0795C89.9877 42.8409 90.2415 42.6288 90.571 42.4432C90.9044 42.2538 91.3551 42.1591 91.9233 42.1591C92.6581 42.1591 93.3059 42.3428 93.8665 42.7102C94.4271 43.0777 94.8646 43.5985 95.179 44.2727C95.4934 44.947 95.6506 45.7424 95.6506 46.6591C95.6506 47.5833 95.4934 48.3845 95.179 49.0625C94.8646 49.7367 94.429 50.2595 93.8722 50.6307C93.3153 50.9981 92.6733 51.1818 91.946 51.1818C91.3854 51.1818 90.9366 51.089 90.5994 50.9034C90.2623 50.714 90.0028 50.5 89.821 50.2614C89.6392 50.0189 89.4991 49.8182 89.4006 49.6591H89.2869V54.2727H87.946ZM89.2642 46.6364C89.2642 47.2955 89.3608 47.8769 89.554 48.3807C89.7472 48.8807 90.0294 49.2727 90.4006 49.5568C90.7718 49.8371 91.2263 49.9773 91.7642 49.9773C92.3248 49.9773 92.7926 49.8295 93.1676 49.5341C93.5464 49.2348 93.8305 48.8333 94.0199 48.3295C94.2131 47.822 94.3097 47.2576 94.3097 46.6364C94.3097 46.0227 94.215 45.4697 94.0256 44.9773C93.84 44.4811 93.5578 44.089 93.179 43.8011C92.804 43.5095 92.3324 43.3636 91.7642 43.3636C91.2188 43.3636 90.7604 43.5019 90.3892 43.7784C90.018 44.0511 89.7377 44.4337 89.5483 44.9261C89.3589 45.4148 89.2642 45.9848 89.2642 46.6364ZM99.0369 39.3636V51H97.696V39.3636H99.0369ZM104.061 51.2045C103.508 51.2045 103.006 51.1004 102.555 50.892C102.105 50.6799 101.747 50.375 101.482 49.9773C101.216 49.5758 101.084 49.0909 101.084 48.5227C101.084 48.0227 101.182 47.6174 101.379 47.3068C101.576 46.9924 101.839 46.7462 102.169 46.5682C102.499 46.3902 102.862 46.2576 103.26 46.1705C103.661 46.0795 104.065 46.0076 104.47 45.9545C105 45.8864 105.43 45.8352 105.76 45.8011C106.093 45.7633 106.336 45.7008 106.487 45.6136C106.643 45.5265 106.72 45.375 106.72 45.1591V45.1136C106.72 44.553 106.567 44.1174 106.26 43.8068C105.957 43.4962 105.497 43.3409 104.879 43.3409C104.239 43.3409 103.737 43.4811 103.374 43.7614C103.01 44.0417 102.754 44.3409 102.607 44.6591L101.334 44.2045C101.561 43.6742 101.864 43.2614 102.243 42.9659C102.625 42.6667 103.042 42.4583 103.493 42.3409C103.947 42.2197 104.394 42.1591 104.834 42.1591C105.114 42.1591 105.436 42.1932 105.8 42.2614C106.167 42.3258 106.521 42.4602 106.862 42.6648C107.207 42.8693 107.493 43.178 107.72 43.5909C107.947 44.0038 108.061 44.5568 108.061 45.25V51H106.72V49.8182H106.652C106.561 50.0076 106.41 50.2102 106.197 50.4261C105.985 50.642 105.703 50.8258 105.351 50.9773C104.999 51.1288 104.569 51.2045 104.061 51.2045ZM104.266 50C104.796 50 105.243 49.8958 105.607 49.6875C105.974 49.4792 106.25 49.2102 106.436 48.8807C106.625 48.5511 106.72 48.2045 106.72 47.8409V46.6136C106.663 46.6818 106.538 46.7443 106.345 46.8011C106.156 46.8542 105.936 46.9015 105.686 46.9432C105.44 46.9811 105.199 47.0152 104.964 47.0455C104.733 47.072 104.546 47.0947 104.402 47.1136C104.054 47.1591 103.728 47.233 103.425 47.3352C103.125 47.4337 102.883 47.5833 102.697 47.7841C102.516 47.9811 102.425 48.25 102.425 48.5909C102.425 49.0568 102.597 49.4091 102.942 49.6477C103.29 49.8826 103.732 50 104.266 50ZM114.304 42.2727V43.4091H109.781V42.2727H114.304ZM111.099 40.1818H112.44V48.5C112.44 48.8788 112.495 49.1629 112.605 49.3523C112.719 49.5379 112.863 49.6629 113.037 49.7273C113.215 49.7879 113.402 49.8182 113.599 49.8182C113.747 49.8182 113.868 49.8106 113.963 49.7955C114.058 49.7765 114.134 49.7614 114.19 49.75L114.463 50.9545C114.372 50.9886 114.245 51.0227 114.082 51.0568C113.92 51.0947 113.713 51.1136 113.463 51.1136C113.084 51.1136 112.713 51.0322 112.349 50.8693C111.99 50.7064 111.69 50.4583 111.452 50.125C111.217 49.7917 111.099 49.3712 111.099 48.8636V40.1818ZM120.207 42.2727V43.4091H115.503V42.2727H120.207ZM116.912 51V41.0682C116.912 40.5682 117.029 40.1515 117.264 39.8182C117.499 39.4848 117.804 39.2348 118.179 39.0682C118.554 38.9015 118.95 38.8182 119.366 38.8182C119.696 38.8182 119.965 38.8447 120.173 38.8977C120.382 38.9508 120.537 39 120.639 39.0455L120.253 40.2045C120.185 40.1818 120.09 40.1534 119.969 40.1193C119.851 40.0852 119.696 40.0682 119.503 40.0682C119.06 40.0682 118.74 40.1799 118.543 40.4034C118.349 40.6269 118.253 40.9545 118.253 41.3864V51H116.912ZM125.273 51.1818C124.485 51.1818 123.794 50.9943 123.199 50.6193C122.608 50.2443 122.146 49.7197 121.812 49.0455C121.483 48.3712 121.318 47.5833 121.318 46.6818C121.318 45.7727 121.483 44.9792 121.812 44.3011C122.146 43.6231 122.608 43.0966 123.199 42.7216C123.794 42.3466 124.485 42.1591 125.273 42.1591C126.061 42.1591 126.75 42.3466 127.341 42.7216C127.936 43.0966 128.398 43.6231 128.727 44.3011C129.061 44.9792 129.227 45.7727 129.227 46.6818C129.227 47.5833 129.061 48.3712 128.727 49.0455C128.398 49.7197 127.936 50.2443 127.341 50.6193C126.75 50.9943 126.061 51.1818 125.273 51.1818ZM125.273 49.9773C125.871 49.9773 126.364 49.8239 126.75 49.517C127.136 49.2102 127.422 48.8068 127.608 48.3068C127.794 47.8068 127.886 47.2652 127.886 46.6818C127.886 46.0985 127.794 45.5549 127.608 45.0511C127.422 44.5473 127.136 44.1402 126.75 43.8295C126.364 43.5189 125.871 43.3636 125.273 43.3636C124.674 43.3636 124.182 43.5189 123.795 43.8295C123.409 44.1402 123.123 44.5473 122.938 45.0511C122.752 45.5549 122.659 46.0985 122.659 46.6818C122.659 47.2652 122.752 47.8068 122.938 48.3068C123.123 48.8068 123.409 49.2102 123.795 49.517C124.182 49.8239 124.674 49.9773 125.273 49.9773ZM131.274 51V42.2727H132.57V43.5909H132.661C132.82 43.1591 133.107 42.8087 133.524 42.5398C133.941 42.2708 134.411 42.1364 134.933 42.1364C135.032 42.1364 135.155 42.1383 135.303 42.142C135.45 42.1458 135.562 42.1515 135.638 42.1591V43.5227C135.592 43.5114 135.488 43.4943 135.325 43.4716C135.166 43.4451 134.998 43.4318 134.82 43.4318C134.395 43.4318 134.017 43.5208 133.683 43.6989C133.354 43.8731 133.092 44.1155 132.899 44.4261C132.71 44.733 132.615 45.0833 132.615 45.4773V51H131.274ZM137.227 51V42.2727H138.523V43.6364H138.636C138.818 43.1705 139.112 42.8087 139.517 42.5511C139.922 42.2898 140.409 42.1591 140.977 42.1591C141.553 42.1591 142.032 42.2898 142.415 42.5511C142.801 42.8087 143.102 43.1705 143.318 43.6364H143.409C143.633 43.1856 143.968 42.8277 144.415 42.5625C144.862 42.2936 145.398 42.1591 146.023 42.1591C146.803 42.1591 147.441 42.4034 147.938 42.892C148.434 43.3769 148.682 44.1326 148.682 45.1591V51H147.341V45.1591C147.341 44.5152 147.165 44.0549 146.812 43.7784C146.46 43.5019 146.045 43.3636 145.568 43.3636C144.955 43.3636 144.479 43.5492 144.142 43.9205C143.805 44.2879 143.636 44.7538 143.636 45.3182V51H142.273V45.0227C142.273 44.5265 142.112 44.1269 141.79 43.8239C141.468 43.517 141.053 43.3636 140.545 43.3636C140.197 43.3636 139.871 43.4564 139.568 43.642C139.269 43.8277 139.027 44.0852 138.841 44.4148C138.659 44.7405 138.568 45.1174 138.568 45.5455V51H137.227ZM153.134 49.4091L153.043 50.0227C152.978 50.4545 152.88 50.9167 152.747 51.4091C152.618 51.9015 152.484 52.3655 152.344 52.8011C152.204 53.2367 152.088 53.5833 151.997 53.8409H150.974C151.024 53.5985 151.088 53.2784 151.168 52.8807C151.247 52.483 151.327 52.0379 151.406 51.5455C151.49 51.0568 151.558 50.5568 151.611 50.0455L151.679 49.4091H153.134ZM163.777 51.1818C162.936 51.1818 162.211 50.9962 161.601 50.625C160.995 50.25 160.527 49.7273 160.197 49.0568C159.872 48.3826 159.709 47.5985 159.709 46.7045C159.709 45.8106 159.872 45.0227 160.197 44.3409C160.527 43.6553 160.985 43.1212 161.572 42.7386C162.163 42.3523 162.853 42.1591 163.641 42.1591C164.095 42.1591 164.544 42.2348 164.987 42.3864C165.43 42.5379 165.834 42.7841 166.197 43.125C166.561 43.4621 166.851 43.9091 167.067 44.4659C167.283 45.0227 167.391 45.7083 167.391 46.5227V47.0909H160.663V45.9318H166.027C166.027 45.4394 165.929 45 165.732 44.6136C165.538 44.2273 165.262 43.9223 164.902 43.6989C164.546 43.4754 164.125 43.3636 163.641 43.3636C163.107 43.3636 162.644 43.4962 162.254 43.7614C161.868 44.0227 161.571 44.3636 161.362 44.7841C161.154 45.2045 161.05 45.6553 161.05 46.1364V46.9091C161.05 47.5682 161.163 48.1269 161.391 48.5852C161.622 49.0398 161.942 49.3864 162.351 49.625C162.76 49.8598 163.235 49.9773 163.777 49.9773C164.129 49.9773 164.447 49.928 164.732 49.8295C165.019 49.7273 165.268 49.5758 165.476 49.375C165.684 49.1705 165.845 48.9167 165.959 48.6136L167.254 48.9773C167.118 49.4167 166.889 49.803 166.567 50.1364C166.245 50.4659 165.847 50.7235 165.374 50.9091C164.9 51.0909 164.368 51.1818 163.777 51.1818ZM176.301 42.2727L173.074 51H171.71L168.483 42.2727H169.938L172.347 49.2273H172.438L174.847 42.2727H176.301ZM181.418 51.1818C180.577 51.1818 179.851 50.9962 179.241 50.625C178.635 50.25 178.168 49.7273 177.838 49.0568C177.512 48.3826 177.349 47.5985 177.349 46.7045C177.349 45.8106 177.512 45.0227 177.838 44.3409C178.168 43.6553 178.626 43.1212 179.213 42.7386C179.804 42.3523 180.493 42.1591 181.281 42.1591C181.736 42.1591 182.185 42.2348 182.628 42.3864C183.071 42.5379 183.474 42.7841 183.838 43.125C184.202 43.4621 184.491 43.9091 184.707 44.4659C184.923 45.0227 185.031 45.7083 185.031 46.5227V47.0909H178.304V45.9318H183.668C183.668 45.4394 183.569 45 183.372 44.6136C183.179 44.2273 182.902 43.9223 182.543 43.6989C182.187 43.4754 181.766 43.3636 181.281 43.3636C180.747 43.3636 180.285 43.4962 179.895 43.7614C179.509 44.0227 179.211 44.3636 179.003 44.7841C178.795 45.2045 178.69 45.6553 178.69 46.1364V46.9091C178.69 47.5682 178.804 48.1269 179.031 48.5852C179.262 49.0398 179.582 49.3864 179.991 49.625C180.401 49.8598 180.876 49.9773 181.418 49.9773C181.77 49.9773 182.088 49.928 182.372 49.8295C182.66 49.7273 182.908 49.5758 183.116 49.375C183.325 49.1705 183.486 48.9167 183.599 48.6136L184.895 48.9773C184.759 49.4167 184.529 49.803 184.207 50.1364C183.885 50.4659 183.488 50.7235 183.014 50.9091C182.541 51.0909 182.009 51.1818 181.418 51.1818ZM187.071 51V42.2727H188.366V43.5909H188.457C188.616 43.1591 188.904 42.8087 189.321 42.5398C189.738 42.2708 190.207 42.1364 190.73 42.1364C190.829 42.1364 190.952 42.1383 191.099 42.142C191.247 42.1458 191.359 42.1515 191.435 42.1591V43.5227C191.389 43.5114 191.285 43.4943 191.122 43.4716C190.963 43.4451 190.795 43.4318 190.616 43.4318C190.192 43.4318 189.813 43.5208 189.48 43.6989C189.151 43.8731 188.889 44.1155 188.696 44.4261C188.507 44.733 188.412 45.0833 188.412 45.4773V51H187.071ZM194.153 54.2727C193.926 54.2727 193.723 54.2538 193.545 54.2159C193.367 54.1818 193.244 54.1477 193.176 54.1136L193.517 52.9318C193.843 53.0152 194.131 53.0455 194.381 53.0227C194.631 53 194.852 52.8883 195.045 52.6875C195.242 52.4905 195.422 52.1705 195.585 51.7273L195.835 51.0455L192.608 42.2727H194.062L196.472 49.2273H196.562L198.972 42.2727H200.426L196.722 52.2727C196.555 52.7235 196.348 53.0966 196.102 53.392C195.856 53.6913 195.57 53.9129 195.244 54.0568C194.922 54.2008 194.559 54.2727 194.153 54.2727ZM210.241 51.1818C209.454 51.1818 208.762 50.9943 208.168 50.6193C207.577 50.2443 207.115 49.7197 206.781 49.0455C206.452 48.3712 206.287 47.5833 206.287 46.6818C206.287 45.7727 206.452 44.9792 206.781 44.3011C207.115 43.6231 207.577 43.0966 208.168 42.7216C208.762 42.3466 209.454 42.1591 210.241 42.1591C211.029 42.1591 211.719 42.3466 212.31 42.7216C212.904 43.0966 213.366 43.6231 213.696 44.3011C214.029 44.9792 214.196 45.7727 214.196 46.6818C214.196 47.5833 214.029 48.3712 213.696 49.0455C213.366 49.7197 212.904 50.2443 212.31 50.6193C211.719 50.9943 211.029 51.1818 210.241 51.1818ZM210.241 49.9773C210.84 49.9773 211.332 49.8239 211.719 49.517C212.105 49.2102 212.391 48.8068 212.577 48.3068C212.762 47.8068 212.855 47.2652 212.855 46.6818C212.855 46.0985 212.762 45.5549 212.577 45.0511C212.391 44.5473 212.105 44.1402 211.719 43.8295C211.332 43.5189 210.84 43.3636 210.241 43.3636C209.643 43.3636 209.151 43.5189 208.764 43.8295C208.378 44.1402 208.092 44.5473 207.906 45.0511C207.721 45.5549 207.628 46.0985 207.628 46.6818C207.628 47.2652 207.721 47.8068 207.906 48.3068C208.092 48.8068 208.378 49.2102 208.764 49.517C209.151 49.8239 209.643 49.9773 210.241 49.9773ZM217.584 45.75V51H216.243V42.2727H217.538V43.6364H217.652C217.857 43.1932 218.167 42.8371 218.584 42.5682C219 42.2955 219.538 42.1591 220.197 42.1591C220.788 42.1591 221.305 42.2803 221.749 42.5227C222.192 42.7614 222.536 43.125 222.783 43.6136C223.029 44.0985 223.152 44.7121 223.152 45.4545V51H221.811V45.5455C221.811 44.8598 221.633 44.3258 221.277 43.9432C220.921 43.5568 220.432 43.3636 219.811 43.3636C219.383 43.3636 219 43.4564 218.663 43.642C218.33 43.8277 218.067 44.0985 217.874 44.4545C217.68 44.8106 217.584 45.2424 217.584 45.75ZM226.943 39.3636V51H225.602V39.3636H226.943ZM229.399 51V42.2727H230.74V51H229.399ZM230.081 40.8182C229.82 40.8182 229.594 40.7292 229.405 40.5511C229.219 40.3731 229.126 40.1591 229.126 39.9091C229.126 39.6591 229.219 39.4451 229.405 39.267C229.594 39.089 229.82 39 230.081 39C230.342 39 230.566 39.089 230.751 39.267C230.941 39.4451 231.036 39.6591 231.036 39.9091C231.036 40.1591 230.941 40.3731 230.751 40.5511C230.566 40.7292 230.342 40.8182 230.081 40.8182ZM234.537 45.75V51H233.196V42.2727H234.491V43.6364H234.605C234.81 43.1932 235.12 42.8371 235.537 42.5682C235.954 42.2955 236.491 42.1591 237.151 42.1591C237.741 42.1591 238.259 42.2803 238.702 42.5227C239.145 42.7614 239.49 43.125 239.736 43.6136C239.982 44.0985 240.105 44.7121 240.105 45.4545V51H238.764V45.5455C238.764 44.8598 238.586 44.3258 238.23 43.9432C237.874 43.5568 237.385 43.3636 236.764 43.3636C236.336 43.3636 235.954 43.4564 235.616 43.642C235.283 43.8277 235.02 44.0985 234.827 44.4545C234.634 44.8106 234.537 45.2424 234.537 45.75ZM246.214 51.1818C245.374 51.1818 244.648 50.9962 244.038 50.625C243.432 50.25 242.964 49.7273 242.635 49.0568C242.309 48.3826 242.146 47.5985 242.146 46.7045C242.146 45.8106 242.309 45.0227 242.635 44.3409C242.964 43.6553 243.423 43.1212 244.01 42.7386C244.601 42.3523 245.29 42.1591 246.078 42.1591C246.533 42.1591 246.982 42.2348 247.425 42.3864C247.868 42.5379 248.271 42.7841 248.635 43.125C248.999 43.4621 249.288 43.9091 249.504 44.4659C249.72 45.0227 249.828 45.7083 249.828 46.5227V47.0909H243.101V45.9318H248.464C248.464 45.4394 248.366 45 248.169 44.6136C247.976 44.2273 247.699 43.9223 247.339 43.6989C246.983 43.4754 246.563 43.3636 246.078 43.3636C245.544 43.3636 245.082 43.4962 244.692 43.7614C244.305 44.0227 244.008 44.3636 243.8 44.7841C243.591 45.2045 243.487 45.6553 243.487 46.1364V46.9091C243.487 47.5682 243.601 48.1269 243.828 48.5852C244.059 49.0398 244.379 49.3864 244.788 49.625C245.197 49.8598 245.673 49.9773 246.214 49.9773C246.567 49.9773 246.885 49.928 247.169 49.8295C247.457 49.7273 247.705 49.5758 247.913 49.375C248.122 49.1705 248.283 48.9167 248.396 48.6136L249.692 48.9773C249.555 49.4167 249.326 49.803 249.004 50.1364C248.682 50.4659 248.285 50.7235 247.811 50.9091C247.338 51.0909 246.805 51.1818 246.214 51.1818ZM262.55 44.2273L261.345 44.5682C261.269 44.3674 261.158 44.1723 261.01 43.983C260.866 43.7898 260.669 43.6307 260.419 43.5057C260.169 43.3807 259.849 43.3182 259.459 43.3182C258.925 43.3182 258.48 43.4413 258.124 43.6875C257.771 43.9299 257.595 44.2386 257.595 44.6136C257.595 44.947 257.716 45.2102 257.959 45.4034C258.201 45.5966 258.58 45.7576 259.095 45.8864L260.391 46.2045C261.171 46.3939 261.752 46.6837 262.135 47.0739C262.518 47.4602 262.709 47.9583 262.709 48.5682C262.709 49.0682 262.565 49.5152 262.277 49.9091C261.993 50.303 261.595 50.6136 261.084 50.8409C260.572 51.0682 259.978 51.1818 259.3 51.1818C258.41 51.1818 257.673 50.9886 257.089 50.6023C256.506 50.2159 256.137 49.6515 255.982 48.9091L257.254 48.5909C257.375 49.0606 257.605 49.4129 257.942 49.6477C258.283 49.8826 258.728 50 259.277 50C259.902 50 260.398 49.8674 260.766 49.6023C261.137 49.3333 261.322 49.0114 261.322 48.6364C261.322 48.3333 261.216 48.0795 261.004 47.875C260.792 47.6667 260.466 47.5114 260.027 47.4091L258.572 47.0682C257.773 46.8788 257.186 46.5852 256.811 46.1875C256.44 45.786 256.254 45.2841 256.254 44.6818C256.254 44.1894 256.393 43.7538 256.669 43.375C256.949 42.9962 257.33 42.6989 257.811 42.483C258.296 42.267 258.845 42.1591 259.459 42.1591C260.322 42.1591 261 42.3485 261.493 42.7273C261.989 43.1061 262.341 43.6061 262.55 44.2273ZM268.386 51.1818C267.545 51.1818 266.82 50.9962 266.21 50.625C265.604 50.25 265.136 49.7273 264.807 49.0568C264.481 48.3826 264.318 47.5985 264.318 46.7045C264.318 45.8106 264.481 45.0227 264.807 44.3409C265.136 43.6553 265.595 43.1212 266.182 42.7386C266.773 42.3523 267.462 42.1591 268.25 42.1591C268.705 42.1591 269.153 42.2348 269.597 42.3864C270.04 42.5379 270.443 42.7841 270.807 43.125C271.17 43.4621 271.46 43.9091 271.676 44.4659C271.892 45.0227 272 45.7083 272 46.5227V47.0909H265.273V45.9318H270.636C270.636 45.4394 270.538 45 270.341 44.6136C270.148 44.2273 269.871 43.9223 269.511 43.6989C269.155 43.4754 268.735 43.3636 268.25 43.3636C267.716 43.3636 267.254 43.4962 266.864 43.7614C266.477 44.0227 266.18 44.3636 265.972 44.7841C265.763 45.2045 265.659 45.6553 265.659 46.1364V46.9091C265.659 47.5682 265.773 48.1269 266 48.5852C266.231 49.0398 266.551 49.3864 266.96 49.625C267.369 49.8598 267.845 49.9773 268.386 49.9773C268.739 49.9773 269.057 49.928 269.341 49.8295C269.629 49.7273 269.877 49.5758 270.085 49.375C270.294 49.1705 270.455 48.9167 270.568 48.6136L271.864 48.9773C271.727 49.4167 271.498 49.803 271.176 50.1364C270.854 50.4659 270.456 50.7235 269.983 50.9091C269.509 51.0909 268.977 51.1818 268.386 51.1818ZM274.04 51V42.2727H275.335V43.5909H275.426C275.585 43.1591 275.873 42.8087 276.29 42.5398C276.706 42.2708 277.176 42.1364 277.699 42.1364C277.797 42.1364 277.92 42.1383 278.068 42.142C278.216 42.1458 278.328 42.1515 278.403 42.1591V43.5227C278.358 43.5114 278.254 43.4943 278.091 43.4716C277.932 43.4451 277.763 43.4318 277.585 43.4318C277.161 43.4318 276.782 43.5208 276.449 43.6989C276.119 43.8731 275.858 44.1155 275.665 44.4261C275.475 44.733 275.381 45.0833 275.381 45.4773V51H274.04ZM287.395 42.2727L284.168 51H282.804L279.577 42.2727H281.031L283.44 49.2273H283.531L285.94 42.2727H287.395ZM289.165 51V42.2727H290.506V51H289.165ZM289.847 40.8182C289.585 40.8182 289.36 40.7292 289.17 40.5511C288.985 40.3731 288.892 40.1591 288.892 39.9091C288.892 39.6591 288.985 39.4451 289.17 39.267C289.36 39.089 289.585 39 289.847 39C290.108 39 290.331 39.089 290.517 39.267C290.706 39.4451 290.801 39.6591 290.801 39.9091C290.801 40.1591 290.706 40.3731 290.517 40.5511C290.331 40.7292 290.108 40.8182 289.847 40.8182ZM296.507 51.1818C295.689 51.1818 294.984 50.9886 294.393 50.6023C293.803 50.2159 293.348 49.6837 293.03 49.0057C292.712 48.3277 292.553 47.553 292.553 46.6818C292.553 45.7955 292.715 45.0133 293.041 44.3352C293.371 43.6534 293.829 43.1212 294.416 42.7386C295.007 42.3523 295.696 42.1591 296.484 42.1591C297.098 42.1591 297.651 42.2727 298.143 42.5C298.636 42.7273 299.039 43.0455 299.354 43.4545C299.668 43.8636 299.863 44.3409 299.939 44.8864H298.598C298.496 44.4886 298.268 44.1364 297.916 43.8295C297.568 43.5189 297.098 43.3636 296.507 43.3636C295.984 43.3636 295.526 43.5 295.132 43.7727C294.742 44.0417 294.437 44.4223 294.217 44.9148C294.001 45.4034 293.893 45.9773 293.893 46.6364C293.893 47.3106 294 47.8977 294.212 48.3977C294.428 48.8977 294.731 49.286 295.121 49.5625C295.515 49.839 295.977 49.9773 296.507 49.9773C296.856 49.9773 297.172 49.9167 297.456 49.7955C297.74 49.6742 297.981 49.5 298.178 49.2727C298.375 49.0455 298.515 48.7727 298.598 48.4545H299.939C299.863 48.9697 299.676 49.4337 299.376 49.8466C299.081 50.2557 298.689 50.5814 298.2 50.8239C297.715 51.0625 297.151 51.1818 296.507 51.1818ZM305.558 51.1818C304.717 51.1818 303.992 50.9962 303.382 50.625C302.776 50.25 302.308 49.7273 301.979 49.0568C301.653 48.3826 301.49 47.5985 301.49 46.7045C301.49 45.8106 301.653 45.0227 301.979 44.3409C302.308 43.6553 302.767 43.1212 303.354 42.7386C303.945 42.3523 304.634 42.1591 305.422 42.1591C305.876 42.1591 306.325 42.2348 306.768 42.3864C307.212 42.5379 307.615 42.7841 307.979 43.125C308.342 43.4621 308.632 43.9091 308.848 44.4659C309.064 45.0227 309.172 45.7083 309.172 46.5227V47.0909H302.445V45.9318H307.808C307.808 45.4394 307.71 45 307.513 44.6136C307.32 44.2273 307.043 43.9223 306.683 43.6989C306.327 43.4754 305.907 43.3636 305.422 43.3636C304.888 43.3636 304.426 43.4962 304.036 43.7614C303.649 44.0227 303.352 44.3636 303.143 44.7841C302.935 45.2045 302.831 45.6553 302.831 46.1364V46.9091C302.831 47.5682 302.945 48.1269 303.172 48.5852C303.403 49.0398 303.723 49.3864 304.132 49.625C304.541 49.8598 305.017 49.9773 305.558 49.9773C305.911 49.9773 306.229 49.928 306.513 49.8295C306.801 49.7273 307.049 49.5758 307.257 49.375C307.465 49.1705 307.626 48.9167 307.74 48.6136L309.036 48.9773C308.899 49.4167 308.67 49.803 308.348 50.1364C308.026 50.4659 307.628 50.7235 307.155 50.9091C306.681 51.0909 306.149 51.1818 305.558 51.1818Z" fill="#797979"/>
<rect width="12" height="40" fill="#FF0000"/>
<rect y="52" width="12" height="52" transform="rotate(-90 0 52)" fill="#FF0000"/>
</svg>
